<svg style="display: none;" aria-hidden="true" xmlns="http://www.w3.org/2000/svg" xmlns:xlink="http://www.w3.org/1999/xlink"><symbol fill="none" viewBox="0 0 156 142" id="svg-book"><g clip-path="url(#aa)"><path fill="#3E497A" d="M14.48 69.865c-2.406-3.587-4.714-7.08-7.078-10.538-1.365-1.994-2.887-3.886-4.192-5.922-.388-.61-.643-1.86-.305-2.248.472-.535 1.656-.9 2.369-.71 9.182 2.423 18.615 2.427 27.983 3.05 7.364.49 14.752.767 21.932 2.715.444.12.911.203 1.318.401.403.194.75.512 1.166.808 13.05-13.732 29.399-23.286 44.248-34.742 1.421-1.099 2.475-.753 3.59.42 8.031 8.428 16.131 16.787 24.102 25.266 5.843 6.213 11.51 12.591 17.297 18.85 1.11 1.2 1.249 2.225.125 3.439-2.424 2.622-4.816 5.271-7.101 7.778 2.715 3.983 5.519 7.915 8.118 11.973 1.485 2.317 2.642 4.841 3.942 7.278.624 1.173.791 2.304-.491 3.301 1.286 1.901 2.517 3.766 3.798 5.603.782 1.122 1.088 2.133-.143 3.176-.301.254-.375.798-.5 1.228-.712 2.423-2.317 3.729-4.834 4.02-13.915 1.62-27.83 3.258-41.745 4.897-.278.032-.551.115-.861.185-.111 4.509-3.076 6.517-6.833 7.616-3.377.987-6.43.47-8.507-2.964-4.843 1.523-9.677 3.014-14.489 4.561-12.666 4.066-25.323 8.169-37.989 12.24-2.97.956-4.464.388-6.13-2.257-9.742-15.425-19.48-30.856-29.222-46.286C1.998 89.758.356 86.32.009 82.47c-.115-1.301.657-2.672.958-4.025.56-2.543 2.85-3.037 4.718-4.02 2.855-1.495 5.718-2.963 8.795-4.56ZM60.509 59.7l36.846 50.182c15.336-14.037 32.614-25.239 46.215-40.752-13.531-14.313-25.841-29.564-40.228-42.972C88.964 37.24 73.262 46.408 60.509 59.7ZM9.02 55.205c1.822 2.677 3.65 5.064 5.162 7.635 8.17 13.888 16.354 27.772 24.301 41.79 1.42 2.506 2.984 3.503 5.718 3.513 8.54.027 17.084.092 25.62.337 5.874.17 11.75.604 17.61 1.043 1.939.143 3.85.669 5.862 1.034-.07-.282-.07-.347-.097-.388a75460.68 75460.68 0 0 0-36.38-49.402c-.212-.29-.55-.618-.879-.678-3.96-.734-7.901-1.694-11.898-2.063-8.1-.748-16.233-1.14-24.342-1.745-3.497-.268-6.986-.702-10.677-1.076ZM5.579 78.556c4.765 8.654 9.201 17.249 14.147 25.543 5.625 9.439 11.717 18.602 17.56 27.911.944 1.51 2.022 1.99 3.738 1.394 1.628-.567 3.34-.881 4.996-1.371 15.294-4.537 30.583-9.102 45.886-13.597.856-.254 1.994-.282 2.78.069 3.9 1.745 6.902.24 7.536-3.974.19-1.27.796-1.98 2.086-2.11 1.434-.147 2.864-.318 4.298-.489a41684.1 41684.1 0 0 0 41.399-4.948c.254-.032.49-.203.874-.365-.861-1.292-1.698-2.455-2.424-3.683-.518-.877-1.046-1.075-2.086-.831-15.364 3.624-30.745 7.173-46.104 10.81-.93.222-1.827.919-2.54 1.607-.828.803-1.558.816-2.636.586-4.326-.923-8.651-2.128-13.032-2.428-7.531-.512-15.104-.369-22.658-.596-6.51-.198-13.018-.544-19.527-.784-1.397-.051-2.156-.743-2.803-1.902A7733.94 7733.94 0 0 0 19.693 78.57c-1.04-1.837-2.174-3.623-3.34-5.557A7073.945 7073.945 0 0 0 5.58 78.556Zm131.611 2.788c-10.686 8.848-21.233 17.586-31.785 26.323l.189.286c14.101-3.332 28.201-6.665 42.505-10.043-3.104-6.015-6.611-11.581-10.909-16.566Zm-33.598-72c0 1.892-.014 3.785.004 5.673.009 1.154-.523 1.934-1.665 2.007-1.249.079-1.892-.692-1.929-1.92-.12-4.066-.231-8.137-.324-12.208-.023-1.14.532-1.897 1.73-1.92 1.18-.023 1.809.692 1.827 1.832.042 2.179.014 4.353.014 6.531.111.005.227.005.343.005Zm-15.415 0c.287.23.949.544 1.286 1.07 1.717 2.655 3.35 5.364 5.01 8.06.639 1.034.62 2.04-.467 2.69-1.068.642-1.989.231-2.632-.803-1.66-2.69-3.363-5.358-4.968-8.082-.824-1.398-.047-2.894 1.771-2.935Zm29.561-.924c.513.36 1.226.61 1.438 1.08.241.536.264 1.395-.013 1.902-1.495 2.775-3.114 5.48-4.673 8.221-.536.946-1.406 1.445-2.276.872-.569-.373-1.207-1.61-.99-2.04 1.61-3.152 3.41-6.212 5.209-9.268.204-.332.759-.457 1.305-.766Z"/><path fill="#3E497A" d="M58.418 75.307c-6.92-1.814-13.221.678-19.628.738-3.003.028-6.037-.544-8.998-1.14-1.804-.365-2.42-1.542-1.883-2.65.708-1.462 1.85-1.218 3.086-.733 3.978 1.555 8.035.918 12.115.498 4.229-.434 8.475-.66 12.722-.863 1-.046 2.119.199 2.993.665.541.29 1.087 1.32.976 1.892-.13.651-.98 1.168-1.383 1.593ZM54.305 93.45c-4.27 0-8.54.005-12.81-.004-.628 0-1.355.093-1.859-.184-.523-.287-1.143-.974-1.138-1.482.005-.6.546-1.283 1.027-1.758.26-.259.87-.213 1.323-.218 9.002-.129 18-.244 27.002-.364.287-.005.671-.115.847.028.648.526 1.684 1.117 1.707 1.717.023.6-.907 1.601-1.582 1.772-1.254.319-2.632.185-3.96.19-3.52.013-7.04.004-10.557.004v.3Z"/><path fill="#E2817F" d="M89.39 54.54c1.216 6.126 2.433 12.246 3.65 18.371.374 1.892.762 3.813 1.664 5.516 2.448 4.62 8.906 6.582 13.518 4.108s6.536-8.927 4.029-13.515c-1.6-2.922-4.524-4.837-7.337-6.628l-14.725-9.388-.8 1.537Z"/><path fill="#3E497A" d="M87.53 55.048c.925 4.667 1.855 9.333 2.78 13.995.791 3.979 1.152 8.534 3.728 11.84 3.83 4.915 11.547 6.24 16.562 2.367 5.121-3.95 6.185-11.668 2.248-16.787-2.41-3.139-6.005-5.123-9.289-7.219-4.131-2.636-8.267-5.271-12.398-7.907-.847-.54-2.174-.207-2.637.688-.263.512-.532 1.025-.795 1.537-1.138 2.197 2.188 4.145 3.33 1.943.264-.512.532-1.024.796-1.537-.879.231-1.758.462-2.637.688 5.986 3.817 12.504 7.297 18.088 11.687 2.336 1.837 4.164 4.177 4.127 7.26-.028 2.451-1.129 5.018-3.086 6.555-4.589 3.6-11.075.563-12.699-4.542-1.045-3.282-1.466-6.85-2.137-10.224a9975.3 9975.3 0 0 1-2.257-11.373c-.486-2.419-4.206-1.39-3.724 1.03Z"/><path fill="#3E497A" d="M98.674 72.574c.014 2.262.92 4.376 2.586 5.913 1.036.96 2.6-.591 1.559-1.556-1.254-1.163-1.929-2.649-1.939-4.361-.009-1.408-2.21-1.413-2.206.004Z"/></g><defs><clipPath id="aa"><path fill="#fff" d="M0 0h156v141H0z" transform="translate(0 .98)"/></clipPath></defs></symbol><symbol fill="none" viewBox="0 0 390 409" id="svg-check"><g clip-path="url(#ba)"><path fill="#EBEAEA" d="M377.642 154.819s20.328 110.53 8.866 122.093c-11.48 11.562-154.544 41.687-154.544 41.687l-13.035-91.895 106.979-4.489-.823-63.218 52.557-4.178Z"/><path fill="#EBEAEA" d="M130.926 442.982c16.819-.917 34.167-3.317 51.534-8.283 16.818-6.065 31.04-12.222 41.058-19.075l2.34-33.899 6.087-63.126-4.478-100.507-59.632-21.128-77.053-14.861c-.932-.861-23.93 19.937-24.99 19.699 0 0-21.516 9.473-27.311 11.855-18.299 7.513-20.804 6.011-27.421 31.609-1.024 3.921 4.771 18.068 4.9 22.135.84 24.133 15.392 85.83 7.805 109.596-2.523 7.898-6.38 18.306-10.237 27.669 0-.018 44.513 39.397 117.398 38.316Z"/><path fill="#E2817F" d="m168.493 198.613 9.177 12.332 20.584 63.42-46.725 142.981-58.06-176.587-11.425-46.598 8.756-12.057 77.693 16.509Z"/><path fill="#EBEAEA" d="M269.987 260.457s-120.926 127.425-143.96 145.657c-23.034 18.232-60.016 14.109-67.291 9.858-5.96-3.481-43.325-82.623-51.442-112.491-5.32-19.533-8.41-36.409-6.91-49.346 1.572-13.505 11.041-27.834 27.403-36.501 24.221-12.827 40.034 33.019 40.034 33.019l35.538 62.1 123.833-114.524 42.795 62.228Z"/><path fill="#162A45" d="M7.294 303.463s.22.605.585 1.796c.366 1.227.914 2.986 1.609 5.277a490.91 490.91 0 0 0 6.891 20.065 639.017 639.017 0 0 0 12.395 31.205c2.54 6.029 5.43 12.406 8.61 19.112 3.236 6.67 6.709 13.707 10.968 20.743 2.103 3.518 4.424 7.055 7.13 10.335 2.724 3.243 6.288 5.863 10.31 7.732 8.117 3.61 17.787 4.233 27.147 2.126 9.396-1.979 18.591-6.267 27.055-12.02a46.83 46.83 0 0 0 3.145-2.236c1.023-.788 2.102-1.521 3.089-2.364 1.956-1.722 4.004-3.353 5.941-5.167 3.894-3.592 7.806-7.256 11.7-11.068 31.15-30.399 64.348-64.94 99.173-101.166 8.975-9.401 17.823-18.673 26.543-27.798l-.055.733c-14.825-21.586-29.157-42.438-42.777-62.265l.841.092c-51.752 47.661-96.266 88.67-128.129 118.006l-.347.312-.22-.403c-11.407-21.128-20.42-37.839-26.598-49.292-3.053-5.699-5.411-10.096-7.001-13.102-.768-1.465-1.372-2.583-1.774-3.371-.402-.77-.566-1.154-.566-1.154s.237.366.658 1.117c.438.77 1.06 1.888 1.864 3.335 1.646 2.987 4.04 7.33 7.166 13.01 6.252 11.416 15.356 28.073 26.891 49.127l-.548-.092c31.808-29.428 76.23-70.529 127.873-118.318l.475-.439.366.531c13.637 19.826 27.969 40.661 42.813 62.246l.275.385-.329.348c-8.702 9.126-17.568 18.398-26.544 27.798-34.825 36.245-68.041 70.749-99.282 101.13-3.894 3.811-7.824 7.476-11.737 11.067-1.937 1.815-4.003 3.482-5.996 5.204-.987.862-2.084 1.595-3.126 2.383-1.042.788-2.084 1.557-3.18 2.253-8.574 5.809-17.879 10.134-27.44 12.131-9.506 2.125-19.395 1.466-27.713-2.254-4.113-1.942-7.788-4.636-10.603-8.008-2.76-3.371-5.082-6.926-7.184-10.481-4.26-7.091-7.715-14.146-10.932-20.853-3.163-6.724-6.014-13.119-8.537-19.166a632.75 632.75 0 0 1-12.212-31.316 413.527 413.527 0 0 1-6.69-20.156c-.713-2.328-1.17-4.123-1.5-5.314-.365-1.173-.493-1.796-.493-1.796Z"/><path fill="#162A45" d="M85.389 361.697c-.073 0-.11-.678-.11-1.888 0-1.209.092-2.968.293-5.13.402-4.325 1.39-10.28 3.29-16.639 1.92-6.358 4.351-11.874 6.398-15.703 1.024-1.924 1.902-3.445 2.56-4.453.658-1.026 1.06-1.558 1.133-1.521.165.092-1.115 2.437-2.943 6.34a118.797 118.797 0 0 0-6.014 15.686c-1.883 6.285-2.98 12.13-3.602 16.399-.585 4.252-.804 6.909-1.005 6.909ZM67.364 201.051c.037 0 .128.458.238 1.337.11 1.008.256 2.291.439 3.885.402 3.371.95 8.227 1.846 14.219 1.755 11.966 4.863 28.439 10.073 46.158 1.133 3.958 2.376 7.806 3.583 11.526l-.439-.385c3.876.807 7.623 1.576 11.224 2.327l.677.147-.274.623c-1.92 4.398-5.485 7.623-9.305 9.254l.237-.697c4.37 7.916 8.007 14.513 10.64 19.295a608.015 608.015 0 0 0 2.906 5.424c.658 1.265.987 1.943.933 1.961-.037.018-.457-.605-1.189-1.814-.786-1.338-1.846-3.097-3.126-5.277-2.724-4.728-6.49-11.27-11.005-19.094l-.274-.476.512-.22c3.583-1.576 6.91-4.655 8.683-8.777l.403.751c-3.602-.733-7.368-1.484-11.243-2.272l-.33-.074-.109-.311c-1.225-3.738-2.468-7.586-3.601-11.563-5.21-17.792-8.208-34.339-9.762-46.377-.786-6.011-1.207-10.922-1.48-14.293-.092-1.594-.165-2.877-.22-3.903-.073-.898-.073-1.374-.037-1.374Zm156.154 213.822c-.329-.037 1.938-25.837 5.045-57.629 3.108-31.792 5.905-57.537 6.216-57.519.329.037-1.938 25.837-5.046 57.629-3.107 31.792-5.904 57.555-6.215 57.519Zm86.541-316.84c-.274-.165 1.499-3.61 3.948-7.678 2.468-4.068 4.68-7.238 4.954-7.055.275.165-1.499 3.61-3.948 7.678-2.45 4.068-4.662 7.238-4.954 7.055Z"/><path fill="#8EA1B2" d="M302.107 86.654c1.755-1.081 3.967-1.246 5.996-.88 2.029.367 3.948 1.228 5.831 2.09 1.554 4.415.494 9.07-2.705 12.478-1.518-1.96-4.077-2.712-6.38-3.61-2.304-.898-4.753-2.382-5.265-4.8-.421-2.053.768-4.197 2.523-5.278Z"/><path fill="#EBEAEA" d="m321.393 69.722-9.287 154.6h-4.46l6.544-154.966a3.611 3.611 0 0 1 3.602-3.481 3.613 3.613 0 0 1 3.601 3.847Z"/><path fill="#162A45" d="M321.393 69.723c-.037 0 0-.294-.11-.825a3.541 3.541 0 0 0-1.206-2.034c-.768-.678-2.194-1.154-3.602-.531a3.41 3.41 0 0 0-1.718 1.649c-.421.77-.347 1.722-.402 2.767-.311 8.3-.75 20.211-1.28 34.889-1.206 29.519-2.87 70.199-4.698 115.111-.055 1.209-.11 2.418-.146 3.591l-.585-.623h4.46l-.585.55c2.651-43.061 5.046-81.688 6.764-109.614.914-13.89 1.645-25.104 2.157-32.928.274-3.83.494-6.817.64-8.924.073-.971.146-1.74.201-2.309.055-.513.092-.77.11-.77.018 0 .018.275.018.788-.018.587-.055 1.356-.091 2.328-.11 2.107-.238 5.112-.421 8.942-.42 7.824-1.042 19.057-1.791 32.946-1.627 27.944-3.894 66.571-6.399 109.632l-.036.55h-5.631l.019-.623c.055-1.136.091-2.364.146-3.591 1.974-44.912 3.748-85.592 5.045-115.093.695-14.678 1.262-26.57 1.664-34.889.073-.99 0-2.07.494-2.932a3.784 3.784 0 0 1 1.937-1.777c1.572-.641 3.108-.073 3.894.678.841.77 1.079 1.649 1.17 2.199.055.55-.018.843-.018.843Z"/><path fill="#EFAD9C" d="m368.722 128.561 4.021 26.826-44.751 3.592-.42-23.712"/><path fill="#8EA1B2" d="m309.364 99.536 1.92-3.519 7.275-11.874s5.74-12.9 10.365-11.782c0 0 28.591 6.707 29.286 8.32.695 1.612 3.693 8.318 3.693 8.318s10.603 15.246 10.84 18.489c.238 3.244-3.455 20.56-3.455 20.56l.695 10.169s-5.539 12.021-15.447 13.175c-9.908 1.155-28.646-1.026-28.646-1.026l.676-11.837c-4.04-3.811-5.502-5.497-6.16-7.458-1.39-4.159 0-20.559 0-20.559l-.622-5.076s-2.614 5.314-7.001 3.701c-4.369-1.649-5.722-5.204-3.419-9.601Z"/><path fill="#162A45" d="M333.495 111.41c.054.018-.311.787-1.627 1.319a4.703 4.703 0 0 1-2.505.256c-.969-.165-2.139-.623-2.925-1.704-.786-1.044-1.115-2.51-1.023-3.958.073-1.466.475-2.95.877-4.452.841-3.042 1.737-6.34 2.687-9.804.494-1.74 1.097-3.463 1.993-5.002.896-1.54 2.157-2.804 3.491-3.72 2.669-1.887 5.649-2.455 7.971-2.73a87.943 87.943 0 0 1 5.575-.55c1.317-.073 2.048-.073 2.066.018.018.184-2.888.55-7.495 1.356-2.303.385-5.027 1.008-7.477 2.804-1.206.88-2.321 2.016-3.107 3.408-.805 1.411-1.371 3.042-1.865 4.746-.987 3.445-1.901 6.725-2.779 9.767-.914 2.932-1.517 5.808-.219 7.623 1.28 1.777 3.492 1.814 4.607 1.484 1.206-.312 1.681-.935 1.755-.861Z"/><path fill="#162A45" d="M335.396 81.12c.274.165-2.76 5.955-7.093 12.754-4.333 6.798-8.299 12.002-8.555 11.818-.275-.183 3.254-5.68 7.568-12.46 4.314-6.761 7.787-12.277 8.08-12.112Zm16.544 27.193c.073.036-.347.898-1.207 2.382-.859 1.484-2.212 3.573-3.967 6.083-.895 1.265-1.828 2.602-2.924 4.087a9.719 9.719 0 0 1-5.009 3.243c-1.061.238-2.249.257-3.364-.183-1.133-.403-2.084-1.375-2.578-2.474-1.078-2.272-.511-4.892.256-7.073 1.518-4.453 3.474-8.539 5.814-11.929 2.303-3.39 5.009-6.01 7.531-7.806 2.523-1.796 4.863-2.803 6.49-3.317 1.645-.513 2.596-.604 2.614-.55.091.22-3.784.862-8.61 4.545-2.395 1.832-4.936 4.416-7.13 7.733-2.212 3.316-4.094 7.329-5.594 11.69-.749 2.144-1.188 4.38-.329 6.194.768 1.869 2.87 2.51 4.68 2.089 1.792-.44 3.419-1.539 4.497-2.822a351.634 351.634 0 0 1 3.017-3.958 219.806 219.806 0 0 0 4.259-5.827c.932-1.374 1.481-2.144 1.554-2.107Z"/><path fill="#162A45" d="M350.496 103.732c-.329-.037-.366-1.558-1.317-3.042-.914-1.503-2.248-2.199-2.157-2.51.037-.33 1.975-.019 3.145 1.887 1.206 1.887.639 3.775.329 3.665Zm13.326-1.759c.037.165-3.053.714-8.062 1.814-.31.073-.621.165-.914.256-.146.037-.256.11-.292.184-.055.036-.183.219-.274.329-.403.532-.786 1.173-1.189 1.815a146.654 146.654 0 0 0-2.449 4.214c-1.7 3.06-3.547 6.395-5.503 9.932l-.018.036-.018.037c-.786 1.008-1.079 2.51-.64 3.811a4.253 4.253 0 0 0 2.12 2.419c.969.476 2.103.513 3.145.238 2.139-.568 3.711-2.217 4.99-3.884 2.505-3.372 4.735-6.377 6.618-8.888l.11-.146.164-.018c4.991-.294 7.843-1.301 7.897-1.118.019.073-.658.366-1.992.769a31.54 31.54 0 0 1-5.85 1.1l.292-.165c-1.718 2.474-3.857 5.57-6.379 9.089-1.28 1.722-2.999 3.646-5.54 4.342-1.243.349-2.687.33-3.948-.293a5.366 5.366 0 0 1-2.724-3.097c-.567-1.704-.183-3.573.841-4.892l-.055.073c1.974-3.573 3.857-6.908 5.631-9.876a105.71 105.71 0 0 1 2.577-4.178c.421-.642.823-1.265 1.28-1.851.164-.22.621-.751.987-.77.347-.091.676-.164 1.005-.238 2.56-.476 4.607-.733 6.015-.916 1.389-.165 2.157-.202 2.175-.128ZM122.389 25.177c-8.043-10.793 1.024-20.798 7.879-23.015 5.375-1.74 11.151-3.481 16.087-.715 3.035 1.705 5.594 4.471 9.031 5.021 4.113.66 7.915-2.07 11.864-3.426 7.221-2.474 15.868.11 20.547 6.138 1.81 2.346 3.181 5.223 5.777 6.633 4.04 2.2 9.049-.11 13.601.495 4.826.642 8.628 4.49 11.279 8.594 2.651 4.105 4.589 8.704 7.824 12.35 2.066 2.328 4.717 4.343 5.704 7.293 1.444 4.343-1.134 9.419.877 13.542 1.591 3.243 5.503 4.71 7.514 7.714 2.906 4.343.895 10.335-2.212 14.531-3.108 4.215-7.276 7.77-9.141 12.662-2.742 7.183.147 15.374-1.499 22.887-2.084 9.601-12.449 16.583-22.119 14.897 1.389 5.772 2.778 11.911.969 17.573-1.81 5.662-8.117 10.316-13.619 8.117"/><path fill="#EFAD9C" d="m91.531 198.943-6.105-138.84c-.147-6.652 4.808-12.314 11.407-13.029l67.821-17.334c21.736-2.346 36.233 24.444 37.658 46.304 1.573 24.28 2.56 54.001-.274 72.123-5.685 36.465-33.545 41.156-33.545 41.156-.018-.183.256-5.186-.219 27.303l-11.407 39.176-65.335-56.859Z"/><path fill="#162A45" d="M195.22 100.892c.091 2.473-1.92 4.581-4.479 4.727-2.56.147-4.717-1.741-4.808-4.196-.091-2.474 1.919-4.58 4.479-4.728 2.559-.146 4.716 1.741 4.808 4.197Zm2.157-10.757c-.403.733-4.497-.88-9.342.44-4.862 1.246-7.733 4.71-8.427 4.251-.329-.201-.037-1.41 1.206-2.95 1.225-1.54 3.528-3.335 6.545-4.141 3.016-.806 5.868-.367 7.623.385 1.81.75 2.596 1.685 2.395 2.015Zm-50.656 10.757c.091 2.473-1.919 4.581-4.479 4.727-2.559.147-4.716-1.741-4.808-4.196-.091-2.474 1.92-4.58 4.479-4.728 2.541-.146 4.717 1.741 4.808 4.197Zm.64-6.139c-.713.458-3.51-2.95-8.391-4.141-4.845-1.264-9.049.366-9.433-.366-.201-.33.64-1.265 2.486-1.998 1.81-.751 4.698-1.21 7.733-.44 3.034.77 5.301 2.53 6.489 4.032 1.225 1.52 1.463 2.712 1.116 2.913Zm17.531 35.072c-.019-.293 3.089-.824 8.153-1.484 1.28-.128 2.486-.385 2.705-1.264.293-.935-.237-2.309-.859-3.812-1.206-3.097-2.486-6.358-3.802-9.767-5.302-13.907-9.122-25.36-8.574-25.562.567-.201 5.302 10.903 10.603 24.811 1.28 3.427 2.486 6.707 3.656 9.822.494 1.466 1.335 3.115.677 5.039-.348.953-1.28 1.667-2.103 1.887-.822.257-1.535.275-2.175.312-5.1.275-8.263.293-8.281.018Z"/><path fill="#B26746" d="M168.493 189.323s-24.459 1.631-48.718-12.918c0 0 12.34 25.69 48.718 22.208v-9.29Zm-4.095-48.137c-2.376-3.5-6.032-5.79-9.378-5.864-2.321-.055-4.533.99-5.667 3.152-1.133 2.162-.987 5.479.603 7.953 1.792 2.785 4.955 3.848 7.422 3.335 2.487-.513 4.443-2.273 6.307-4.05.512-.495 1.042-1.008 1.298-1.741.256-.733.201-1.777-.329-2.51"/><path fill="#162A45" d="M150.139 133.325c.823-.055.841 5.406 5.503 9.272 4.661 3.885 10.475 3.243 10.511 4.013.073.348-1.298 1.063-3.747 1.136-2.395.092-5.923-.678-8.775-3.042-2.852-2.363-4.077-5.534-4.278-7.769-.201-2.272.421-3.628.786-3.61Zm-1.791-50.665c-.677 1.282-5.557-.074-11.48-.22-5.923-.257-10.877.769-11.462-.55-.256-.623.749-1.778 2.833-2.822 2.066-1.045 5.247-1.851 8.811-1.723 3.547.129 6.673 1.136 8.665 2.309 2.011 1.173 2.944 2.4 2.633 3.005Zm48.572-4.857c-.878 1.136-4.333-.036-8.501-.073-4.15-.201-7.678.788-8.482-.403-.348-.586.201-1.722 1.736-2.803 1.518-1.082 4.04-1.961 6.911-1.888 2.851.092 5.338 1.118 6.782 2.272 1.462 1.155 1.937 2.327 1.554 2.895Z"/><path fill="#162A45" d="M116.795 27.01c-.036 7.292 3.328 14.53 8.903 19.221 5.576 4.673 13.272 6.725 20.438 5.406 5.557-1.026 11.645-3.83 16.453-.861 5.063 3.114 5.264 10.756 9.743 14.659 6.417 5.57 16.599.348 24.734 2.767 6.289 1.869 10.201 7.879 14.387 12.955 4.168 5.057 10.42 9.876 16.708 8.007-.402-5.662-.804-11.379-2.486-16.803-1.682-5.424-4.771-10.591-9.524-13.688-2.596-1.704-5.612-2.73-8.044-4.69-5.21-4.215-6.416-11.563-9.652-17.464-4.149-7.604-12.175-12.936-20.767-13.816-7.147-.733-14.514 1.411-21.498-.348-5.155-1.301-9.652-4.654-14.88-5.644-10.164-1.942-19.615 5.37-27.001 12.662"/><path fill="#162A45" d="M97.656 105.986c-1.079-.293-5.43 6.138 1.535 7.714 12.212 2.767 13.82-21.146 11.096-27.98 4.424-3.94 8.885-7.916 12.267-12.919 3.363-5.002 6.343-18.617 5.63-24.756 4.406.257 23.162-5.955 21.151-6.523-4.552-1.3-13.893-4.27-16.325-8.227-5.301-8.613-14.679-14.476-24.24-13.963-9.56.531-18.737 8.099-20.712 18.214-11.572.091-22.869 7.366-28.426 18.342-5.558 10.958-5.137 25.159 1.023 35.732 1.61 2.767 3.675 5.534 3.711 8.814.055 4.049 10.347 43.666 23.436 46.707"/><path fill="#EFAD9C" d="M98.15 115.991c-.385-7.751-8.812-12.937-15.521-9.052-3.675 2.125-6.49 6.413-6.16 14.659.895 21.952 22.704 16.51 22.722 15.887 0-.385-.585-12.406-1.042-21.494Z"/><path fill="#B26746" d="M92.153 129.459c-.091-.074-.366.275-1.005.604-.622.312-1.682.55-2.852.184-2.34-.752-4.442-4.361-4.717-8.319a12.525 12.525 0 0 1 .841-5.516c.604-1.631 1.59-2.803 2.742-3.06 1.152-.311 1.993.348 2.304.953.31.605.2 1.044.31 1.081.055.055.458-.385.238-1.283-.11-.439-.384-.934-.914-1.337-.548-.403-1.316-.587-2.139-.477-1.681.183-3.144 1.814-3.839 3.573-.804 1.778-1.224 3.94-1.078 6.176.329 4.416 2.76 8.465 5.96 9.253 1.553.348 2.815-.183 3.473-.733.658-.568.767-1.063.676-1.099Z"/><path fill="#FAFAFA" d="M194.726 130.008c-.512 0-1.024-.018-1.554-.073-4.552-.403-8.683-2.584-11.041-5.809-1.627-2.235-3.035-5.387-4.516-8.722-1.352-3.042-2.76-6.193-4.424-8.832-1.06-1.686-1.791-1.869-2.376-1.796a2.108 2.108 0 0 0-1.81 1.484c-.603 2.016-6.325 19.717-20.474 21.916-22.211 3.463-41.479-6.615-42.302-7.055l-.237-.183-13.62-12.882-1.352-31.865 98.094-1.008c12.083-.586 19.615.88 22.375 4.398 4.443 5.625 6.965 34.999-2.906 44.454-4.077 3.884-8.939 5.973-13.857 5.973Zm-23.728-27.486c2.047 0 3.309 1.613 4.113 2.859 1.755 2.767 3.181 5.992 4.57 9.125 1.444 3.225 2.797 6.267 4.278 8.301 1.937 2.675 5.557 4.544 9.414 4.892 4.753.422 9.616-1.447 13.619-5.277 8.702-8.337 6.618-36.428 2.706-41.412-1.28-1.63-5.649-4.251-20.493-3.537l-.585.037-95.26.953 1.225 28.604 12.833 12.148c1.718.88 20.236 9.932 40.765 6.744 12.797-1.998 18.098-18.453 18.665-20.322a4.356 4.356 0 0 1 3.748-3.096c.128-.019.274-.019.402-.019Z"/><path fill="#FAFAFA" d="m75.883 119.014-.548-4.691c-.037-.366-1.06-9.015-.878-14.33.202-5.551 15.192-21.64 16.91-23.454l1.645 1.558c-6.233 6.615-16.16 18.434-16.288 21.97-.11 3.005.201 7.256.475 10.28 1.317-1.979 3.382-4.251 6.326-5.333 3.217-1.154 6.745-.641 10.53 1.558l-1.134 1.961c-3.163-1.833-6.07-2.309-8.61-1.393-4.625 1.668-6.764 7.366-6.783 7.421l-1.645 4.453Zm98.332-23.364c.238-.237 5.503 4.71 12.029 10.794 6.508 6.083 11.809 11.012 11.59 11.269-.11.128-1.572-.953-3.821-2.822-2.267-1.869-5.301-4.526-8.574-7.586-3.272-3.06-6.142-5.9-8.153-8.044-2.011-2.108-3.181-3.5-3.071-3.61Zm13.144 17.024c.183-.257 2.98 1.393 5.996 3.995 3.035 2.583 5.119 5.075 4.881 5.295-.238.238-2.651-1.851-5.649-4.398-2.961-2.565-5.411-4.617-5.228-4.892Zm19.597 2.125c-.366-.128 2.358-6.706 2.888-15.337.622-8.612-1.17-15.502-.804-15.575.128-.037.768 1.63 1.316 4.453.548 2.821.951 6.816.658 11.214-.292 4.398-1.225 8.301-2.157 11.013-.932 2.73-1.773 4.306-1.901 4.232Zm-73.818 6.707c.055-.202 2.212.568 5.814.825 3.564.274 8.665-.22 13.564-2.676 4.899-2.474 8.336-6.285 10.237-9.327 1.956-3.041 2.614-5.24 2.815-5.167.073.018-.018.586-.329 1.576-.311.989-.859 2.4-1.773 4.013-1.792 3.243-5.283 7.348-10.438 9.931-5.155 2.584-10.53 2.951-14.186 2.456-1.846-.238-3.309-.623-4.278-.971-.95-.33-1.462-.587-1.426-.66Zm-22.448-28.86c.183-.257 4.789 2.987 9.908 7.659 5.137 4.654 8.775 8.942 8.555 9.162-.237.238-4.259-3.665-9.341-8.282-5.082-4.654-9.323-8.264-9.122-8.54Zm-7.331-1.723c.219-.238 5.466 3.995 11.718 9.456 6.252 5.46 11.17 10.096 10.95 10.334-.219.238-5.466-3.994-11.718-9.455-6.252-5.442-11.169-10.078-10.95-10.335Z"/><path fill="#EBEAEA" d="M305.379 274.749c-4.716-.238-8.354-4.251-8.135-8.997l4.698-95.339 17.093.843-4.699 95.339c-.219 4.746-4.241 8.393-8.957 8.154Z"/><path fill="#162A45" d="M305.379 274.749c0-.073.768.019 2.139-.293 1.352-.293 3.4-1.154 4.99-3.316.75-1.082 1.39-2.474 1.518-4.087.109-1.63.146-3.445.237-5.387.165-3.885.348-8.319.567-13.193.914-19.68 2.194-46.836 3.62-77.236l.548.623c-2.724-.128-5.612-.274-8.537-.421-2.925-.147-5.832-.293-8.555-.422l.621-.549c-1.572 30.399-2.98 57.574-3.985 77.235-.274 4.874-.512 9.291-.731 13.194-.092 1.924-.238 3.756-.293 5.387-.036 1.612.475 3.06 1.115 4.214 1.371 2.309 3.327 3.372 4.644 3.793 1.334.403 2.102.403 2.102.458 0 0-.768.092-2.176-.274-1.371-.367-3.455-1.393-4.954-3.793-.713-1.192-1.279-2.712-1.279-4.435.018-1.686.128-3.463.201-5.424.164-3.884.347-8.319.567-13.193.914-19.68 2.193-46.836 3.619-77.254l.018-.586.585.036c2.724.129 5.631.275 8.556.422 2.925.146 5.831.293 8.537.421l.585.037-.037.586c-1.572 30.4-2.98 57.556-3.985 77.218-.274 4.874-.512 9.308-.731 13.193-.128 1.942-.183 3.72-.348 5.405-.164 1.704-.877 3.17-1.7 4.288-1.736 2.236-3.912 3.06-5.301 3.28-1.408.257-2.157.073-2.157.073Z"/><path fill="#CC3E3E" d="M305.562 271.818c-3.455-.165-6.124-3.134-5.96-6.597l2.358-47.826c.165-3.463 3.126-6.138 6.581-5.973 3.455.165 6.124 3.133 5.96 6.596l-2.358 47.826c-.165 3.481-3.108 6.157-6.581 5.974Z"/><path fill="#8EA1B2" d="M290.133 174.096c1.334.989 43.782 17.957 43.782 17.957s7.952 4.984 6.142 11.966c0 0 4.808 6.322 3.163 11.965 0 0 3.034 4.655-1.481 8.32h-1.682s-.292 4.177-4.515 6.101c-2.139.972-18.372-2.437-18.372-2.437l-21.06-.659s-23.545 7.311-33.179 10.976l-3.108 7.641-27.878-40.789s49.888-30.033 52.886-31.023c2.98-1.026 5.302-.018 5.302-.018Z"/><path fill="#162A45" d="M340.734 206.841c-.11.146-2.377-1.411-6.161-3.683a122.103 122.103 0 0 0-15.356-7.843 126.243 126.243 0 0 0-16.324-5.571c-4.278-1.136-6.965-1.685-6.929-1.869.019-.073.695-.036 1.938.129 1.243.146 3.016.458 5.192.934 4.351.935 10.31 2.639 16.58 5.277 6.271 2.657 11.645 5.754 15.338 8.228 1.846 1.246 3.309 2.29 4.277 3.078.988.788 1.499 1.246 1.445 1.32Zm2.833 8.355c-.055.147-2.285-.568-5.85-1.832-3.93-1.411-8.665-3.097-13.875-4.966-5.228-1.869-9.944-3.573-13.875-4.984-3.546-1.301-5.722-2.144-5.667-2.309.055-.146 2.322.422 5.942 1.503 3.619 1.099 8.573 2.712 14.021 4.654a307.476 307.476 0 0 1 13.783 5.296c3.455 1.484 5.576 2.474 5.521 2.638Zm-2.267 8.283c-.073.165-2.029-.568-5.21-1.704a168.383 168.383 0 0 0-12.54-3.94c-4.954-1.337-9.506-2.272-12.833-2.895-3.309-.623-5.375-.971-5.357-1.154.019-.147 2.121-.092 5.485.329 3.363.422 7.988 1.246 12.997 2.584 5.009 1.356 9.415 2.969 12.541 4.306 3.126 1.338 4.972 2.346 4.917 2.474Z"/></g><defs><clipPath id="ba"><path fill="#fff" d="M0 0h390v409H0z"/></clipPath></defs></symbol><symbol fill="none" viewBox="0 0 131 128" id="svg-control"><g clip-path="url(#ca)"><path fill="#E2817F" d="M67.71 63.77c5.165 6.053-4.425 14.74-22.032 14.74-17.608 0-27.047-6.74-22.647-14.45 1.829-3.208.98-1.927 5.35-5.346 3.942-3.085 6.189-5.855 17.297.434 6.126 3.467 7.716-6.792 10.503-5.49 4.075 1.9 9.552 7.796 11.528 10.112Z"/><path fill="#3E497A" d="M78.328 73.92c1.446 1.543 2.9 3.09 4.346 4.635 2.618-1.876 3.535-1.79 5.682.509 7.74 8.291 15.484 16.579 23.221 24.87 2.619 2.808 3.217 6.149 1.628 8.988-1.471 2.62-5.85 4.537-8.978 3.949-3.255-.612-5.82-2.419-7.956-4.803-4.41-4.92-8.722-9.931-13.07-14.902a2323.472 2323.472 0 0 1-4.709-5.397c-1.713-1.965-2.089-5.476-.807-7.813-.995-.95-2.007-1.91-3.107-2.958-.855.68-1.799 1.455-2.766 2.193-16.473 12.53-38.795 12.366-54.85-.629C7.297 74.74 1.785 64.456.688 52.066c-1.863-21.027 10.469-39.167 30.61-45.47 13.846-4.331 26.975-2.903 38.849 5.576 12.927 9.234 18.913 22.003 17.857 37.933-.486 7.355-3.262 15.957-9.676 23.814ZM5.895 46.647c.02 22.003 17.734 39.651 39.84 39.696 21.988.044 39.674-17.662 39.722-39.771.047-21.857-17.857-39.618-39.92-39.604-21.778.013-39.663 17.91-39.642 39.679ZM79.61 85.96c.267.352.424.605.623.817 8.205 8.663 16.4 17.337 24.653 25.956.52.54 1.494.878 2.267.892 1.682.034 3.146-.725 3.809-2.317.752-1.81.492-3.57-.923-5.086-7.973-8.534-15.933-17.078-23.899-25.615-.225-.239-.492-.44-.806-.717-1.915 2.032-3.778 4.01-5.724 6.07Zm-.123-69.501c-.461-.434-1.015-.714-1.107-1.1-.106-.451.04-1.13.348-1.476 1.043-1.178 2.206-2.251 3.32-3.365 1.662-1.653 3.327-3.303 4.978-4.964.677-.68 1.412-1.277 2.294-.427.869.84.366 1.596-.338 2.293-2.698 2.664-5.371 5.353-8.076 8.01-.372.366-.855.622-1.419 1.029Zm5.686 6.429c-.209-.232-.742-.567-.83-.994-.09-.434.13-1.24.45-1.397a122.774 122.774 0 0 1 7.645-3.454c.349-.143 1.217.28 1.419.663.198.376.024 1.373-.277 1.52-2.578 1.285-5.217 2.436-7.843 3.625-.072.03-.164.01-.564.037Zm-7.05-20.852c-.188.516-.27.803-.393 1.07a802.032 802.032 0 0 1-2.615 5.54c-.387.806-.95 1.387-1.912.943-.936-.43-.957-1.202-.553-2.046.916-1.92 1.767-3.878 2.786-5.74.25-.454 1.056-.826 1.603-.823.383.004.756.714 1.084 1.056Z"/><path fill="#3E497A" d="M79.433 46.44c-.028 18.758-15.365 34.055-34.145 34.055-18.849 0-34.165-15.236-34.169-33.987-.003-19.001 15.286-34.347 34.152-34.275 18.876.072 34.189 15.404 34.162 34.206Zm-9.006 18.55c8.944-10.973 8.88-29.5-3.494-41.357-12.958-12.421-33.246-11.595-45.126 1.797C10.565 38.1 12.08 55.66 20.39 65.297c.264-.342.513-.683.776-1.011 3.953-4.916 8.551-9.023 14.462-11.469 1.659-.686 1.853-.6 3.016.824 1.562 1.916 3.337 3.6 5.884 4.01 4.051.653 7.244-.84 9.689-4.089 1.173-1.558 1.675-1.797 3.286-.707 2.42 1.64 4.793 3.41 6.91 5.415 2.18 2.06 4.03 4.471 6.013 6.72ZM36.54 55.447c-4.677 1.523-12.312 8.035-14.305 12.206 13.012 14.433 35.25 12.674 46.214-.307-3.129-4.882-7.088-8.947-11.973-12.087-7.816 7.164-12.63 7.188-19.936.188Zm70.011 55.2c-.188-.106-.615-.24-.885-.52-.674-.703-1.286-1.469-1.904-2.22-.541-.656-.565-1.35.099-1.913.653-.554 1.357-.441 1.921.177.687.752 1.378 1.51 1.969 2.334.674.943.11 2.101-1.2 2.142Z"/><path fill="#3E497A" d="M58.922 30.113c-.047.533-.058.92-.123 1.295-.17 1.005-.147 1.862.435 2.86 1.138 1.964.304 4.359-1.7 5.298-.759.355-.926.868-1.056 1.558-.51 2.675-1.467 5.155-3.32 7.211-3.692 4.093-9.381 4.213-13.515.29-2.24-2.124-3.514-4.785-4.144-7.76-.184-.875-.492-1.483-1.271-2.033-2.366-1.67-2.41-4.363-.26-6.218.246-.212.359-.714.342-1.076-.086-2.033.14-4.007 1.121-5.818 1.511-2.794 3.778-4.308 7.07-4.02.301.027.677-.066.924-.24 3.282-2.299 6.762-2.852 10.318-.837 3.682 2.088 5.108 5.531 5.18 9.49Zm-21.316 5.17c.085 3.118.369 6.032 1.801 8.686 1.368 2.529 3.402 4.288 6.315 4.708 3.074.44 5.922-1.394 7.173-4.953.793-2.255 1.002-4.715 1.426-7.092.05-.28-.106-.677-.298-.91-1.152-1.386-2.338-2.739-3.549-4.143-3.572 2.747-7.832 4.267-12.868 3.703Zm18.226-1.661c.136-1.735.434-3.17.325-4.574-.441-5.531-5.806-8.657-10.25-5.924-1.447.888-2.643 1.561-4.476 1.312-1.996-.27-3.668 1.704-4.256 4.359-.722 3.249.225 4.314 3.535 3.904 3.566-.44 6.752-1.684 9.224-4.437.892-.99 1.963-.987 2.595-.038.3.448.441 1.008.615 1.53.459 1.388 1.026 2.696 2.688 3.868Z"/></g><defs><clipPath id="ca"><path fill="#fff" d="M0 0h113.583v116H0z" transform="translate(.5 .98)"/></clipPath></defs></symbol><symbol fill="currentColor" viewBox="0 0 15 16" id="svg-download"><path d="M6.174 12.306a1.874 1.874 0 0 0 2.651.001h.001l2.007-2.007a.625.625 0 0 0-.884-.882l-1.828 1.83.004-9.643a.625.625 0 0 0-1.25 0l-.006 9.63-1.818-1.817a.625.625 0 1 0-.884.884l2.007 2.005Z"/><path d="M14.375 10.98a.625.625 0 0 0-.625.625v2.5c0 .345-.28.625-.625.625H1.875a.625.625 0 0 1-.625-.625v-2.5a.625.625 0 0 0-1.25 0v2.5c0 1.036.84 1.875 1.875 1.875h11.25c1.036 0 1.875-.84 1.875-1.875v-2.5a.625.625 0 0 0-.625-.625Z"/></symbol><symbol fill="currentColor" viewBox="0 0 50 51" id="svg-glasses"><g clip-path="url(#ea)"><path d="M41.667.98a8.333 8.333 0 0 0-8.334 8.334 2.083 2.083 0 0 0 4.167 0 4.167 4.167 0 0 1 8.333 0v22.97a10.308 10.308 0 0 0-6.25-2.137 10.416 10.416 0 0 0-8.635 4.598 8.29 8.29 0 0 0-11.896 0 10.417 10.417 0 0 0-8.635-4.598 10.308 10.308 0 0 0-6.25 2.137V9.314a4.167 4.167 0 1 1 8.333 0 2.083 2.083 0 0 0 4.167 0A8.333 8.333 0 0 0 0 9.314v31.25a10.417 10.417 0 0 0 20.833 0 4.167 4.167 0 1 1 8.334 0 10.417 10.417 0 0 0 20.833 0V9.314A8.333 8.333 0 0 0 41.667.98Zm-31.25 45.834a6.25 6.25 0 1 1 0-12.5 6.25 6.25 0 0 1 0 12.5Zm29.166 0a6.25 6.25 0 1 1 0-12.5 6.25 6.25 0 0 1 0 12.5Z"/></g><defs><clipPath id="ea"><path d="M0 0h50v50H0z" transform="translate(0 .98)"/></clipPath></defs></symbol><symbol fill="none" viewBox="0 0 345 347" id="svg-how"><g clip-path="url(#fa)"><path fill="#7B85E8" d="M338.703 103.915c-2.153-5.365-8.327-7.384-13.241-9.537-5.441-2.387-11.087-4.415-16.904-5.662-10.292-2.207-22.979-1.965-28.581 8.605-3.118 5.876-3.869 13.314-3.44 19.514.563 8.093 6.996 9.627 13.589 11.942 5.03 1.759 10.141 3.284 15.323 4.486l-7.737 6.451 18.503-4.36c4.146.861 8.747 2.054 12.589.35 3.824-1.696 6.379-5.698 7.639-9.421 2.028-5.994 4.735-16.204 2.26-22.368Z"/><path fill="#fff" d="m304.466 115.077.42-.996c.778-1.965 2.332-3.616 4.959-4.854 1.858-.862 3.395-1.606 3.994-2.88.616-1.31.16-2.584-1.68-3.535-1.233-.584-2.94-.835-4.226-.62l.643-4.692c1.716-.153 4.307.153 6.96 1.4 4.932 2.324 5.897 6.119 4.441 9.232-1.332 2.853-3.967 3.903-6.12 4.809-2.1.888-3.351 2.091-4.101 3.795l-.313.673-4.977-2.332Zm-3.386 4.728c.929-1.992 2.975-2.764 4.923-1.848 2.019.951 2.663 2.996 1.769 4.997-.911 1.956-2.939 2.781-4.959 1.83-1.983-.933-2.644-3.032-1.733-4.979Z"/><path fill="#E2817F" d="M187.165 13.906c-13.045-3.75-34.201.054-37.507 11.655-2.85 9.995 7.192 20.475 18.36 25.598l5.138 17.253 3.216-14.544c13.027 2.432 31.262-1.947 34.335-12.722 3.306-11.601-10.498-23.49-23.542-27.24Z"/><path fill="#fff" d="m175.05 37.207.08-1.077c.125-2.117 1.063-4.172 3.172-6.182 1.492-1.408 2.716-2.601 2.877-4.001.17-1.445-.661-2.494-2.707-2.817-1.349-.162-3.047.143-4.2.762l-.875-4.647c1.572-.691 4.128-1.23 7.04-.889 5.415.637 7.523 3.93 7.121 7.349-.366 3.131-2.528 4.961-4.288 6.505-1.716 1.507-2.52 3.041-2.69 4.898l-.089.745-5.441-.646Zm-1.725 5.563c.251-2.18 1.957-3.571 4.083-3.32 2.216.26 3.467 1.992 3.253 4.181-.25 2.145-1.912 3.571-4.128 3.31-2.162-.25-3.458-2.027-3.208-4.171Z"/><path fill="#E1EAF4" d="M55.014 90.582c-3.394-11.672-14.697-15.001-26.33-11.59C17.06 82.4 7.938 92.475 11.334 104.147c2.68 9.215 12.365 14.876 22.05 15.172l13.053 8.784-5.19-9.797c11.462-3.518 17.136-16.132 13.767-27.725Z"/><path fill="#3E497A" d="m34.206 103.628-.304-.816c-.626-1.588-.634-3.41.223-5.599.617-1.543 1.1-2.826.75-3.903-.365-1.112-1.33-1.597-2.93-1.14-1.045.35-2.18 1.149-2.814 1.992l-2.207-3.104c.92-1.04 2.6-2.306 4.843-3.05 4.163-1.382 6.826.305 7.692 2.933.795 2.414-.17 4.486-.929 6.218-.742 1.687-.804 3.078-.304 4.495l.179.583-4.2 1.391Zm.625 4.648c-.554-1.678.215-3.275 1.858-3.822 1.707-.566 3.208.269 3.789 1.937.545 1.651-.188 3.266-1.894 3.832-1.671.556-3.208-.296-3.753-1.947Z"/><path fill="#fff" d="M260.857 61.602c-.59-3.93-3.726-7.662-7.979-7.527-4.735.152-7.254 4.459-8.8 8.37-1.197 3.024 3.243 5.537 4.449 2.486.599-1.516 1.251-3.804 2.618-4.827 2.52-1.893 4.726.43 4.744 3.194.027 3.41-2.144 6.64-4.905 8.443-4.762 3.113-10.105 3.041-13.41 8.263-1.761 2.782 2.698 5.249 4.449 2.486 3.011-4.756 10.525-4.612 14.492-8.712 3.037-3.132 5.003-7.788 4.342-12.176Zm-26.169 25.374c-3.181-.78-4.387 4.19-1.198 4.97 3.181.78 4.387-4.19 1.198-4.97ZM86.339 119.527c-3.065-.601-6.692 1.166-8.497 3.651-2.18 2.997-.894 6.057 1.26 8.632 1.653 1.965 4.985-.296 3.314-2.288-1.93-2.297-1.688-5.285 1.689-5.931 4.816-.915 3.726 5.042 3.118 7.609-.947 4.001-1.68 7.931 1.046 11.421 1.59 2.028 4.922-.233 3.314-2.288-3.1-3.965.563-9.241.268-13.727-.214-3.239-2.18-6.433-5.512-7.079Zm6.075 24.853c-2.448.852-1.135 4.665 1.314 3.813 2.448-.844 1.134-4.666-1.314-3.813Zm171.945-8.56c-1.814-5.024-10.444-5.32-9.882.978.152 1.723 2.842 1.624 2.69-.116-.304-3.383 4.02-1.983 4.717.224.742 2.36-.992 4.01-2.993 4.737-2.493.906-5.048 1.202-6.772 3.436-1.055 1.364.902 3.221 1.956 1.849 2.02-2.611 5.915-2.127 8.39-4.172 2.01-1.651 2.779-4.468 1.894-6.936Zm-12.919 12.409c-1.689-.386-2.288 2.243-.599 2.629 1.689.385 2.296-2.244.599-2.629ZM114.697 63.693c-.554-1.938-2.046-3.598-4.074-4.002-2.028-.403-3.994.575-4.843 2.477-1.108 2.458-.205 4.952.849 7.25.295.636 1.206.789 1.76.466.643-.377.751-1.13.465-1.768-.706-1.525-1.689-3.741-.492-5.293 1.037-1.346 2.904-.386 3.565.834 1.001 1.848.34 4.127-.268 5.975-.759 2.297-1.68 4.63-1.394 7.106.081.691.536 1.292 1.287 1.292.634 0 1.367-.592 1.286-1.292-.259-2.287.644-4.405 1.341-6.531.67-2.09 1.134-4.352.518-6.514Zm-2.556 16.859c-1.652 0-1.661 2.584 0 2.584 1.662 0 1.662-2.584 0-2.584Z"/><path fill="#162A45" d="M215.13 140.683c-1.787-2.028-3.743-3.912-5.405-6.047a19.354 19.354 0 0 1-3.583-7.456c-1.313-5.527-.724-11.296-1.501-16.886-.661-4.746-2.439-9.295-5.093-13.278-5.191-7.788-13.536-13.36-22.854-14.517-9.417-1.176-19.236 2.108-26.241 8.478-.607.548-1.152 1.149-1.706 1.74a.795.795 0 0 0-.358.369 35.445 35.445 0 0 0-1.662 2c-1.992-.968-4.118-1.462-6.298-1.184-5.093.664-9.998 4.495-12.857 9.035-4.387 6.963-4.53 16.347-2.028 24.126 1.322 4.119 3.573 8.138 3.69 12.606.107 4.289-2.154 7.905-4.745 10.892-4.726 5.447-12.106 10.579-11.802 19.066.33 9.134 8.318 14.293 15.251 17.227a54.619 54.619 0 0 0 12.526 3.616c3.994.655 8.3 1.166 12.276.08 7.479-2.054 10.445-10.434 12.267-17.755a81.519 81.519 0 0 0 1.216-5.877c3.85 10.156 8.058 20.465 15.706 28.37 3.449 3.562 7.63 6.711 12.312 8.398 3.976 1.426 8.729 1.812 12.616-.108 4.413-2.18 5.959-7.016 5.325-11.664-.724-5.401-3.735-10.04-5.075-15.252-.652-2.549-.938-5.33.045-7.842.875-2.243 2.725-3.804 4.646-5.132 3.52-2.432 7.728-4.693 8.603-9.304.974-5.159-2.019-10.013-5.271-13.701Zm-66.803-44.708c0 .009 0 0 0 0Z"/><path fill="#EFAD9C" d="M83.757 290.043 58.56 210.451c-1.224-3.858.903-7.985 4.754-9.215 3.547-1.13 7.308.593 8.836 3.894l35.121 75.708c2.949 6.361.206 13.915-6.12 16.876-6.334 2.961-13.857.207-16.806-6.146a13.373 13.373 0 0 1-.59-1.525Z"/><path fill="#EFAD9C" d="M98.114 298.934c-1.572 0-3.162-.296-4.708-.924-6.469-2.611-9.596-9.995-6.996-16.491l37.427-93.391c2.6-6.496 9.953-9.636 16.422-7.025 6.468 2.611 9.595 9.995 6.995 16.491l-37.426 93.391a12.636 12.636 0 0 1-11.714 7.949ZM70.64 199.002s.18-25.732-1.983-27.123c-2.162-1.39-6.066 15.989-6.066 15.989s-37.713-13.144-39.062-11.018c-1.358 2.126 14.85 8.649 14.85 8.649s-19.281-4.719-20.22-2.351c-.857 2.154 18.727 8.273 18.727 8.273s-20.87-2.701-20.397-.574c.464 2.126 19.048 6.065 19.048 6.065s-17.181-.036-16.734 1.372c.438 1.4 17.431 4.729 17.431 4.729 8.434 1.705 11.463 4.181 19.87 8.066 15.127 6.989 17.521 1.094 14.537-12.077Zm146.205 79.575 35.399-69.23a7.29 7.29 0 0 1 9.837-3.176c3.288 1.696 4.753 5.545 3.556 8.954l-25.598 73.455c-2.305 6.622-9.524 10.112-16.117 7.797-6.594-2.315-10.07-9.564-7.765-16.185.188-.539.438-1.122.688-1.615Z"/><path fill="#EFAD9C" d="M225.655 297.068c-5.897 0-11.168-4.172-12.365-10.201l-18.531-93.445c-1.358-6.864 3.074-13.539 9.909-14.903 6.835-1.364 13.482 3.086 14.84 9.95l18.53 93.445c1.358 6.864-3.073 13.539-9.908 14.903-.822.17-1.653.251-2.475.251Zm30.225-97.671s5.031-25.732 7.47-27.114c2.439-1.382 2.832 15.998 2.832 15.998s40.366-13.073 41.286-10.947c.921 2.127-16.6 8.623-16.6 8.623s20.228-4.684 20.692-2.315c.42 2.153-20.397 8.236-20.397 8.236s21.407-2.655 20.514-.538c-.894 2.117-20.264 6.029-20.264 6.029s17.181 0 16.457 1.4c-.723 1.4-18.387 4.692-18.387 4.692-8.782 1.687-12.303 4.155-21.496 8.031-16.547 6.971-17.753 1.067-12.107-12.095Z"/><path fill="#162A45" d="M155.429 97.608s-5.53 15.369 2.225 27.724c0 0 1.108-22.323 6.862-25.966l-9.087-1.758Z"/><path fill="#E2817F" d="m268.871 224.51-21.693 66.475c-5.977 18.312-32.218 16.895-36.211-1.956l-.965-4.585c2.242 26.872 7.031 55.134 13.625 84.375a597.59 597.59 0 0 1-19.272 2.198l-4.074-8.066-3.395 8.721c-40.509 3.266-73.21.323-95.787-13.781 5.816-21.65 10.632-43.794 14.429-66.439l-2.394 6.944c-4.825 14.015-24.633 13.835-29.207-.278l-22.078-68.117 22.337-14.149 12.365 23.705 8.774-20.412 12.133-33.125c3.797-9.493 16.082-13.495 25.767-8.515 16.198 8.335 34.121 6.263 53.25-3.284 10.918-5.455 24.489.691 26.285 11.87l11.642 38.41 2.216 8.613 8.89-16.401 23.363 7.797Z"/><path fill="#D35D57" d="M246.303 216.983s1.572-4.953 3.1-4.46c1.528.494 1.26 2.495 1.26 2.495s2.761-2.36 3.842-1.221c1.081 1.14.697 2.674.697 2.674s3.002-1.48 4.369-.987c1.366.494 1.206 2.826 1.206 2.826s1.912-2.054 3.225-1.453c1.313.601.929 3.347.929 3.347s1.037-2.082 2.511-1.427c1.474.655.518 5.419.518 5.419l-21.657-7.213ZM62.6 229.526s-1.992-3.625-.769-4.576c1.224-.951 2.976 0 2.976 0s-.295-3.221 1.242-3.589c1.527-.368 3.207 1.462 3.207 1.462s-.804-3.66.947-4.1c1.751-.439 3.574.808 3.574.808s-.947-3.401.438-3.679 2.984 1.337 2.984 1.337-.58-2.414 1.242-3.14c1.822-.736 4.905 2.332 4.905 2.332L62.6 229.526Zm136.662-3.778-1.367-1.058c-4.905-3.787-5.879-7.573-5.914-7.734l.831-.207c.009.036.777 2.952 4.279 6.146-1.251-3.149-3.779-10.363-3.976-17.316l.858-.027c.25 9.026 4.539 18.528 4.584 18.626l.705 1.57Zm-73.138 36.607c-.116-.063-11.624-6.541-11.007-19.461.456-9.6 5.736-16.912 10.391-23.363l.366-.512c-.018-1.471-.107-12.597 2.207-18.823l.804.296c-2.359 6.37-2.153 18.527-2.144 18.644v.143l-.536.745c-4.584 6.352-9.784 13.557-10.23 22.897-.59 12.373 10.453 18.608 10.56 18.671l-.411.763Z"/><path fill="#D35D57" d="M126.098 216.22c-2.868-1.875-3.574-5.527-3.61-5.68l.84-.161c.009.036.679 3.445 3.234 5.114l-.464.727Zm43.779 47.256c-.268 0-.545 0-.813-.009l.018-.861c14.652.296 23.435-8.138 24.998-14.23l.831.215c-1.501 5.823-9.613 14.885-25.034 14.885Zm-52.634 23.732-.813-.26c2.457-7.681 3.574-29.815 3.592-30.03l.858.045c-.054.897-1.144 22.457-3.637 30.245Zm-20.306-47.131-.79.336 6.556 15.521.79-.337-6.556-15.52Zm138.297-4.615-8.383 18.949.784.35 8.383-18.95-.784-.349Zm-25.768 47.331c-.045-.251-4.396-25.247-4.173-37.692l.858.018c-.223 12.364 4.11 37.28 4.154 37.531l-.839.143Zm-38.133-89.3s1.367 2.809 4.387 1.947c3.02-.861 2.85-4.486 2.85-4.486s4.164 2.198 5.361.592c1.197-1.606-.456-4.755-.456-4.755s3.306.233 4.333-1.202c1.028-1.436-1.483-3.553-1.483-3.553s2.565-.628 2.734-2.18c.072-.619-.804-1.158-1.858-1.579-14.135 5.311-27.527 6.083-39.964 1.067-1.26.566-2.395 1.382-2.368 2.459.054 2.404 3.306 1.947 3.306 1.947s-1.939 2.117-1.43 3.669c.51 1.543 4.11 1.373 4.11 1.373s-1.885 3.203 0 4.351c1.885 1.149 4.673-.278 4.673-.278s.17 3.616 2.734 3.921c2.564.305 4.44-1.812 4.44-1.812s2.913 2.18 5.477 1.893c2.582-.287 3.154-3.374 3.154-3.374Z"/><path fill="#EFAD9C" d="m175.237 151.961 1.939 29.931s-13 8.416-23.489 1.786l.367-22.718 21.183-8.999Z"/><path fill="#162A45" d="M153.893 170.821c13.616 1.058 21.058-7.761 21.058-7.761h-20.933l-.125 7.761Z"/><path fill="#EFAD9C" d="m163.462 183.597-12.92-3.059c0 14.687 24.954 18.348 34.854-1.597l-21.934 4.656Zm1.286-82.562c23.498 3.104 31.611 19.586 22.462 44.439-7.282 19.784-23.034 27.383-37.963 20.349-11.821-5.563-16.833-17.684-13.831-33.071 4.28-21.964 15.376-33.565 29.332-31.717Z"/><path fill="#162A45" d="M196.18 136.933c.17-2.145.161-4.289 0-6.406-.652-8.587-3.949-16.733-9.408-22.395-6.737-6.989-16.368-10.21-25.839-8.568-.473.08-.732.538-.759.969-.322.08-.608.35-.635.816-.473 9.179 1.546 18.267 5.781 25.714 4.423 7.779 11.159 13.575 18.986 16.509 1.974.736 4.047 1.355 6.147 1.633 1.59.206 3.413-.018 4.422-1.749 1.046-1.795 1.144-4.496 1.305-6.523Z"/><path fill="#EFAD9C" d="M183.6 146.031c-2.439 3.131-2.385 6.845-.125 8.613 2.26 1.767 6.058.673 8.497-2.459 2.439-3.131 2.582-7.105.321-8.873-2.26-1.777-6.263-.413-8.693 2.719Z"/><path fill="#AD6253" d="M184.914 151.495a.75.75 0 0 1-.742-.7.743.743 0 0 1 .697-.79c.572-.036 1.286-.359 1.501-.987.08-.242.054-.529.027-.852-.027-.359-.063-.763.027-1.193a3.066 3.066 0 0 1 1.438-1.947c.92-.539 1.966-.628 2.779-.243 1.358.646 1.715 2.243 1.358 3.491a.741.741 0 0 1-.921.511.748.748 0 0 1-.509-.924c.179-.628.045-1.445-.563-1.732-.366-.17-.911-.098-1.402.18a1.569 1.569 0 0 0-.733.978c-.045.215-.027.457 0 .744.036.44.08.933-.107 1.472-.376 1.103-1.51 1.902-2.806 1.983-.009.009-.027.009-.044.009Z"/><path fill="#162A45" d="M140.947 122.209s6.924-2.198 11.409-2.018c-2.841-2.988-8.943-.503-11.409 2.018Zm32.977 8.228s-6.013-4.082-10.364-5.204c3.574-2.046 8.72 2.082 10.364 5.204Zm-26.803 2.431c-.394 1.373-1.609 2.225-2.708 1.902-1.108-.314-1.688-1.686-1.295-3.059.393-1.373 1.608-2.225 2.707-1.902 1.099.323 1.689 1.696 1.296 3.059Z"/><path fill="#fff" d="M145.378 131.397c-.125.44-.509.718-.857.619-.349-.099-.528-.538-.403-.978.126-.44.51-.718.858-.619.349.099.527.529.402.978Z"/><path fill="#162A45" d="M166.517 138.44c-.393 1.373-1.608 2.225-2.707 1.902-1.108-.314-1.688-1.687-1.295-3.059.393-1.373 1.608-2.225 2.707-1.902 1.099.323 1.68 1.695 1.295 3.059Z"/><path fill="#fff" d="M164.766 136.969c-.125.439-.509.717-.857.619-.349-.099-.528-.539-.403-.978.126-.44.51-.718.858-.619.349.098.527.538.402.978Z"/><path fill="#AD6253" d="M150.283 143.716a.743.743 0 0 1-.33-.081c-1.135-.574-1.85-1.319-2.046-2.171-.116-.485-.116-1.238.518-2.1.357-.475.956-1.041 1.599-1.642.581-.538 1.171-1.103 1.457-1.489a.74.74 0 0 1 1.036-.162.747.747 0 0 1 .161 1.041c-.366.503-.983 1.077-1.644 1.696-.563.529-1.144 1.077-1.421 1.444-.357.476-.286.763-.268.862.09.395.554.825 1.269 1.184a.74.74 0 0 1 .331.996.743.743 0 0 1-.662.422Z"/><path fill="#C16B5B" d="M154.018 149.009a6.594 6.594 0 0 1 2.591 1.813.967.967 0 0 1-.089 1.363.958.958 0 0 1-1.358-.089c-1.814-2.082-4.834-1.84-5.942-1.113a.962.962 0 0 1-1.331-.287.97.97 0 0 1 .286-1.337c1.295-.852 3.681-1.193 5.843-.35Z"/></g><defs><clipPath id="fa"><path fill="#fff" d="M0 0h345v346H0z" transform="translate(0 .98)"/></clipPath></defs></symbol><symbol fill="none" viewBox="0 0 426 472" id="svg-prepare"><g clip-path="url(#ga)"><path fill="#fff" d="M40.43 126.612c.01 0-.012.162-.068.475-.056.313-.156.778-.257 1.393a39.35 39.35 0 0 0-.537 5.409 36.156 36.156 0 0 0 .75 8.55 34.018 34.018 0 0 0 4.165 10.581c2.16 3.67 5.15 7.308 8.24 11.292 3.113 3.962 6.147 8.518 8.274 13.765 2.139 5.226 3.538 11.056 3.807 17.177.257 6.111-.65 12.523-2.978 18.623-2.318 6.111-5.856 11.595-10.133 16.119a47.588 47.588 0 0 1-14.6 10.494c-5.229 2.483-10.435 4.286-15.036 6.51-4.624 2.181-8.554 4.901-11.532 7.989a36.718 36.718 0 0 0-6.662 9.328 35.275 35.275 0 0 0-2.911 8.097c-.303 1.144-.415 2.192-.583 3.088-.09.906-.201 1.673-.235 2.288-.033.605-.056 1.069-.078 1.415-.022.324-.034.486-.045.486-.011 0-.011-.162-.011-.486 0-.346.011-.821.011-1.425.023-.627.112-1.393.18-2.3.145-.896.246-1.954.526-3.109a34.901 34.901 0 0 1 2.843-8.184 36.553 36.553 0 0 1 6.651-9.468c2.99-3.131 6.975-5.927 11.622-8.129 4.624-2.257 9.83-4.081 15.014-6.554 5.206-2.429 10.188-5.905 14.41-10.396 4.232-4.47 7.725-9.9 10.009-15.935 2.295-6.035 3.202-12.362 2.956-18.408-.258-6.056-1.635-11.832-3.74-17.015-2.094-5.203-5.06-9.705-8.162-13.678-3.068-3.995-6.057-7.655-8.218-11.379a34.062 34.062 0 0 1-4.12-10.721 36.07 36.07 0 0 1-.65-8.615c.112-2.375.403-4.2.65-5.42.112-.615.246-1.079.313-1.382.079-.324.123-.475.135-.475Z"/><path fill="#fff" d="M87.51 134.224s-.594 2.612-2.307 7.158c-.862 2.267-2.026 5.009-3.74 8.021-1.712 3.001-3.985 6.327-7.378 9.209-.84.724-1.78 1.382-2.765 2.008a45.024 45.024 0 0 1-3.146 1.684c-2.172 1.08-4.434 2.192-6.763 3.358-4.68 2.3-9.707 4.729-14.857 7.503-5.117 2.786-10.043 6.521-14.23 11.185-4.188 4.653-7.625 10.267-9.618 16.518-1.993 6.251-2.396 12.783-1.389 18.872 1.008 6.089 3.427 11.725 6.909 16.291 3.46 4.599 7.535 8.367 10.793 12.373 1.646 1.986 3.101 4.027 4.243 6.132 1.12 2.105 2.015 4.221 2.642 6.305 1.254 4.167 1.568 8.129 1.422 11.562a32.43 32.43 0 0 1-1.556 8.67 32.015 32.015 0 0 1-2.15 5.16c-.302.54-.548.961-.716 1.263-.168.281-.258.421-.258.421s.068-.161.213-.453c.157-.313.38-.745.672-1.295a34.508 34.508 0 0 0 2.038-5.172 33.445 33.445 0 0 0 1.444-8.615c.112-3.401-.235-7.32-1.5-11.433-.627-2.062-1.523-4.135-2.643-6.208-1.13-2.062-2.575-4.07-4.22-6.046-3.248-3.962-7.334-7.719-10.85-12.361-3.538-4.61-6.012-10.332-7.042-16.508-1.03-6.164-.616-12.782 1.388-19.12 2.015-6.337 5.508-12.016 9.74-16.712 4.244-4.718 9.215-8.486 14.4-11.282 5.172-2.775 10.21-5.182 14.901-7.46 2.34-1.145 4.602-2.257 6.774-3.325a46.084 46.084 0 0 0 3.124-1.652 22.984 22.984 0 0 0 2.72-1.954c3.36-2.807 5.643-6.089 7.367-9.058 1.736-2.98 2.923-5.701 3.807-7.946a89.933 89.933 0 0 0 1.892-5.236c.19-.583.336-1.048.448-1.382.123-.324.19-.475.19-.475Z"/><path fill="#fff" d="M69.797 161.236c-.033.151-5.43-.789-12.07-2.106-6.627-1.317-11.98-2.504-11.946-2.656.034-.151 5.43.789 12.07 2.106 6.628 1.317 11.98 2.504 11.946 2.656Zm8.207-7.46c-.045.151-8.363-2.073-18.586-4.956-10.222-2.893-18.462-5.355-18.417-5.495.044-.151 8.363 2.073 18.585 4.955 10.223 2.883 18.463 5.344 18.418 5.496Zm6.012-9.803c-.044.151-10.02-2.613-22.269-6.165-12.26-3.552-22.146-6.553-22.101-6.704.044-.152 10.02 2.612 22.269 6.164 12.249 3.563 22.146 6.553 22.101 6.705Zm-38.167 90.86c-.056.14-5.408-1.706-11.958-4.124-6.55-2.429-11.8-4.513-11.745-4.653.056-.141 5.408 1.706 11.958 4.135 6.55 2.418 11.812 4.502 11.745 4.642Zm10.513-11.617c-.011.033-.526-.086-1.433-.335-.918-.248-2.228-.626-3.84-1.122-3.236-.983-7.67-2.44-12.518-4.178a272.584 272.584 0 0 1-12.304-4.74 149.848 149.848 0 0 1-3.673-1.576c-.862-.389-1.321-.616-1.31-.659.011-.032.515.13 1.4.454.985.378 2.239.842 3.74 1.403a664.355 664.355 0 0 0 12.349 4.578 711.336 711.336 0 0 0 12.439 4.329l3.784 1.296c.896.323 1.377.507 1.366.55Zm6.035-12.599c-.012.033-.571-.162-1.545-.55a6028.52 6028.52 0 0 0-4.143-1.663 402.033 402.033 0 0 0-13.749-5.236 411.43 411.43 0 0 0-13.962-4.707 714.484 714.484 0 0 0-4.254-1.35c-1.008-.324-1.556-.518-1.545-.561.01-.043.582.086 1.612.345 1.03.259 2.508.659 4.322 1.188a235.906 235.906 0 0 1 14.04 4.567 242.152 242.152 0 0 1 13.715 5.398c1.724.745 3.124 1.371 4.076 1.824.929.443 1.455.713 1.433.745Zm.078-15.708c-.011.032-.448-.087-1.232-.335-.895-.292-1.982-.659-3.269-1.09a515.47 515.47 0 0 0-10.816-3.531c-4.243-1.328-8.106-2.461-10.894-3.282a292.366 292.366 0 0 0-3.314-.972c-.783-.237-1.209-.388-1.198-.421.012-.032.46.044 1.254.216a88.27 88.27 0 0 1 3.36.81c2.832.713 6.717 1.792 10.96 3.131a206.53 206.53 0 0 1 10.771 3.692c1.366.508 2.463.939 3.213 1.263.773.292 1.176.486 1.165.519Zm.157-12.211c-.056.151-4.714-1.252-10.424-3.12-5.71-1.868-10.29-3.509-10.233-3.649.056-.151 4.713 1.252 10.423 3.12 5.7 1.857 10.29 3.498 10.234 3.649Zm-17.41 75.833c-.011.032-.415-.065-1.109-.292-.817-.27-1.802-.594-2.956-.961-2.63-.874-5.99-1.997-9.718-3.239-3.74-1.209-7.11-2.299-9.752-3.163-1.142-.378-2.127-.702-2.944-.971-.695-.238-1.075-.389-1.064-.421.011-.033.414.043 1.13.215.717.173 1.747.454 3.013.799 2.53.713 6 1.76 9.807 3.002 3.807 1.252 7.222 2.461 9.674 3.39a94.85 94.85 0 0 1 2.889 1.133c.671.303 1.04.475 1.03.508Zm1.97 14.25c-.056.151-9.26-2.732-20.556-6.424-11.297-3.703-20.422-6.812-20.366-6.963.056-.152 9.248 2.731 20.556 6.434 11.297 3.692 20.422 6.812 20.366 6.953Zm-.179 10.613c-.045.151-10.323-2.764-22.952-6.499-12.63-3.736-22.83-6.888-22.785-7.039.045-.152 10.323 2.763 22.953 6.499 12.629 3.735 22.829 6.888 22.784 7.039Z"/><path fill="#E0E0E0" d="m312.137 334.469-7.72-6.44c-1.787-1.492-1.957-4.129-.39-5.882l77.896-87.399 14.174 11.84-77.885 87.379c-1.572 1.763-4.283 1.985-6.075.502Z"/><path fill="#F5F5F5" d="m320.363 325.219-7.724-6.442c-1.788-1.493-1.958-4.13-.39-5.885l56.009-62.818 14.182 11.843-56.009 62.819c-1.563 1.745-4.28 1.976-6.068.483Z"/><path fill="#fff" d="m388.198 255.634-9.461-7.873-37.069 41.392 9.46 7.872 37.07-41.391Z"/><path fill="#E0E0E0" d="M312.136 334.472c.029-.071.622.669 2.233.901a4.444 4.444 0 0 0 2.844-.647c.51-.31.929-.768 1.372-1.288.452-.514.93-1.052 1.445-1.632 4.103-4.627 10.02-11.322 17.386-19.635 14.788-16.634 35.35-39.741 58.485-65.763l.022.396c-3.488-2.914-7.189-6.005-10.943-9.137-1.103-.927-2.213-1.846-3.231-2.703l.409-.028c-24.781 27.758-47.096 52.743-63.218 70.797-4.031 4.503-7.685 8.576-10.882 12.149-.802.898-1.577 1.749-2.315 2.582-.367.411-.734.823-1.095 1.225-.351.408-.724.766-.973 1.191a4.068 4.068 0 0 0-.523 2.699c.148.874.58 1.652 1.169 2.204 2.524 2.137 4.475 3.804 5.819 4.948.649.559 1.155.992 1.51 1.294.326.287.486.447.486.447s-.186-.137-.542-.415c-.361-.293-.878-.707-1.547-1.252-1.366-1.13-3.348-2.765-5.898-4.879-.628-.572-1.087-1.39-1.258-2.313a4.254 4.254 0 0 1 .534-2.867c.26-.469.645-.846.991-1.244.361-.402.712-.809 1.084-1.23.739-.833 1.509-1.698 2.302-2.601 3.184-3.593 6.808-7.682 10.825-12.205 16.089-18.084 38.347-43.1 63.081-70.908l.191-.22.223.181c1.019.857 2.128 1.775 3.232 2.703 3.744 3.126 7.455 6.222 10.943 9.137l.213.177-.186.21c-23.192 25.967-43.802 49.048-58.633 65.647a43144.378 43144.378 0 0 0-17.513 19.529c-.51.57-1.004 1.113-1.465 1.622-.447.505-.898.996-1.432 1.305a4.464 4.464 0 0 1-2.942.619 4.236 4.236 0 0 1-1.723-.626c-.34-.22-.48-.37-.48-.37Z"/><path fill="#EBEBEB" d="m394.017 252.467-17.394-14.502 18.535-20.753c.817-.92 2.241-1.03 3.174-.255l14.02 11.685c.933.774 1.018 2.152.2 3.072l-18.535 20.753Z"/><path fill="#E0E0E0" d="M395.947 250.14c-.108.119-4.126-3.068-8.974-7.115-4.858-4.052-8.699-7.433-8.591-7.551.107-.118 4.125 3.069 8.973 7.115 4.848 4.047 8.699 7.433 8.592 7.551Z"/><path fill="#E0E0E0" d="M380.138 236.725c-.118-.101 3.682-4.568 8.494-9.968 4.816-5.409 8.811-9.71 8.929-9.609.118.101-3.683 4.568-8.494 9.967-4.811 5.4-8.811 9.71-8.929 9.61Zm2.362 1.964c-.119-.101 3.682-4.568 8.493-9.967 4.817-5.409 8.812-9.71 8.93-9.61.118.101-3.683 4.568-8.494 9.968-4.802 5.404-8.806 9.7-8.929 9.609Zm2.444 2.022c-.118-.101 3.683-4.568 8.494-9.968 4.816-5.409 8.811-9.71 8.929-9.609.118.1-3.682 4.568-8.494 9.967-4.807 5.414-8.811 9.71-8.929 9.61Zm2.371 1.969c-.118-.1 3.683-4.567 8.494-9.967 4.817-5.409 8.812-9.71 8.93-9.609.118.1-3.683 4.567-8.494 9.967-4.817 5.409-8.811 9.71-8.93 9.609Zm2.44 2.031c-.118-.101 3.683-4.568 8.494-9.968 4.817-5.409 8.811-9.71 8.929-9.609.118.101-3.682 4.568-8.494 9.967-4.816 5.409-8.811 9.71-8.929 9.61Zm2.361 1.965c-.118-.101 3.683-4.568 8.494-9.967 4.817-5.41 8.811-9.711 8.93-9.61.118.101-3.683 4.568-8.494 9.968-4.802 5.404-8.812 9.71-8.93 9.609Zm2.445 2.021c-.119-.101 3.682-4.568 8.493-9.967 4.817-5.41 8.812-9.711 8.93-9.61.118.101-3.683 4.568-8.494 9.967-4.817 5.41-8.811 9.711-8.929 9.61ZM360.315 390.08l-5.694-2.413c-2.16-.912-3.115-3.372-2.126-5.482l38.083-81.829 13.515 5.732-38.083 81.829c-.984 2.101-3.535 3.075-5.695 2.163Z"/><path fill="#F5F5F5" d="m364.39 381.341-5.699-2.414c-2.162-.912-3.117-3.373-2.127-5.485l27.288-58.589 13.525 5.734-27.288 58.589c-.99 2.112-3.543 3.086-5.699 2.165Z"/><path fill="#fff" d="m400.126 314.52-8.988-3.822-18.226 39.299 8.989 3.821 18.225-39.298Z"/><path fill="#E0E0E0" d="M360.313 390.081c.008-.057.625.336 1.908.281a4.397 4.397 0 0 0 2.201-.741 4.139 4.139 0 0 0 1.076-1.022c.322-.422.516-.951.77-1.496 2.025-4.407 4.96-10.769 8.583-18.658 7.334-15.819 17.526-37.781 28.971-62.479l.143.361c-3.06-1.296-6.309-2.681-9.592-4.072-1.337-.569-2.673-1.138-3.913-1.655l.385-.14c-12.124 25.972-23.015 49.306-30.895 66.171-1.973 4.212-3.754 8.006-5.326 11.354-.77 1.67-1.539 3.229-2.162 4.643-.505 1.453-.09 2.953.735 3.88.807.979 2.006 1.263 2.898 1.705.904.399 1.684.731 2.318 1.009.609.278 1.083.483 1.427.63.324.137.473.229.473.229s-.171-.054-.501-.182c-.349-.138-.829-.333-1.445-.577-.639-.269-1.424-.592-2.345-.962-.465-.2-.964-.406-1.492-.628a4.17 4.17 0 0 1-1.5-1.09c-.892-.963-1.346-2.547-.821-4.1.631-1.472 1.368-2.999 2.135-4.683 1.547-3.349 3.304-7.168 5.253-11.38 7.832-16.891 18.669-40.242 30.735-66.245l.124-.256.261.116c1.235.526 2.571 1.095 3.913 1.654 3.283 1.391 6.532 2.776 9.593 4.073l.261.115-.124.256c-11.513 24.663-21.768 46.603-29.14 62.401-3.697 7.863-6.68 14.198-8.748 18.594-.265.541-.479 1.083-.822 1.519a4.332 4.332 0 0 1-1.126 1.044 4.413 4.413 0 0 1-2.289.719 4.456 4.456 0 0 1-1.452-.197c-.326-.113-.47-.191-.47-.191Z"/><path fill="#EBEBEB" d="m403.676 310.766-16.588-7.021 8.969-19.22a2.307 2.307 0 0 1 2.976-1.133l12.502 5.291c1.13.481 1.629 1.758 1.111 2.862l-8.97 19.221Z"/><path fill="#E0E0E0" d="M404.643 308.625c-.068.139-3.878-1.33-8.509-3.303-4.637-1.964-8.343-3.679-8.269-3.828.068-.14 3.878 1.329 8.51 3.303 4.631 1.973 8.337 3.688 8.268 3.828Z"/><path fill="#E0E0E0" d="M389.479 301.997c-.14-.063 1.666-4.255 4.035-9.37 2.379-5.111 4.417-9.203 4.557-9.14.14.063-1.667 4.255-4.036 9.37-2.372 5.101-4.411 9.193-4.556 9.14Zm2.254.955c-.139-.063 1.667-4.255 4.036-9.37 2.379-5.111 4.417-9.203 4.557-9.14.14.063-1.667 4.255-4.036 9.371-2.378 5.11-4.417 9.202-4.557 9.139Zm2.319 1c-.14-.063 1.667-4.255 4.036-9.37 2.378-5.11 4.416-9.202 4.556-9.14.14.063-1.666 4.255-4.035 9.371-2.373 5.101-4.412 9.193-4.557 9.139Zm2.245.95c-.14-.063 1.667-4.255 4.036-9.37 2.378-5.111 4.417-9.203 4.556-9.14.14.063-1.666 4.255-4.035 9.37-2.369 5.116-4.408 9.208-4.557 9.14Zm2.318 1.001c-.14-.063 1.667-4.255 4.036-9.371 2.378-5.11 4.417-9.202 4.557-9.139.14.063-1.667 4.255-4.036 9.37-2.363 5.106-4.411 9.193-4.557 9.14Zm2.25.963c-.14-.062 1.667-4.254 4.035-9.37 2.379-5.11 4.417-9.202 4.557-9.139.14.062-1.666 4.254-4.035 9.37-2.373 5.101-4.412 9.193-4.557 9.139Zm2.324.992c-.14-.063 1.666-4.255 4.035-9.37 2.379-5.11 4.417-9.202 4.557-9.14.14.063-1.667 4.255-4.036 9.371-2.373 5.101-4.411 9.193-4.556 9.139Z"/><path fill="#162A45" d="M214.963 161.832c3.798-5.335 11.241-7.98 17.724-6.273 6.47 1.706 11.511 7.618 11.968 14.084.457 6.454-3.693 12.987-9.858 15.519 5.028 2.475 7.338 9.076 4.911 13.982-2.438 4.917-9.202 7.324-14.371 5.109-1.278 4.341-6.318 6.963-10.984 6.658-4.665-.294-8.873-2.973-12.062-6.274-6.623-6.861-9.6-17-7.115-26.065 2.485-9.065 10.573-16.616 20.162-18.164"/><path fill="#455A64" d="M222.383 154.779c.012-.012.082.101.187.316.106.215.293.531.446.972.351.859.75 2.182.902 3.877a15.129 15.129 0 0 1-.691 6.025c-.692 2.227-2.063 4.589-4.185 6.533l.035-.373a16.302 16.302 0 0 1 3.107 7.212c.621 3.718-.094 7.426-1.7 10.297-1.594 2.893-3.927 4.928-6.084 6.205-2.169 1.289-4.161 1.888-5.556 2.137-.704.113-1.243.192-1.618.203-.375.023-.563.023-.563 0-.011-.056.774-.113 2.134-.429a17.839 17.839 0 0 0 5.369-2.272c2.074-1.289 4.302-3.312 5.814-6.115 1.512-2.781 2.192-6.353 1.594-9.947-.434-2.634-1.524-5.053-2.977-6.963l-.153-.204.188-.169c2.051-1.854 3.399-4.115 4.103-6.262.75-2.159.902-4.194.808-5.855-.199-3.357-1.289-5.154-1.16-5.188Z"/><path fill="#437DAF" d="M269.248 151.625c.023.034-.598.384-1.735.995-1.137.61-2.79 1.446-4.853 2.475-4.114 2.046-9.87 4.747-16.317 7.528-6.459 2.769-12.39 5.098-16.716 6.68-2.168.791-3.927 1.424-5.146 1.831-1.219.407-1.911.622-1.922.577-.012-.034.644-.317 1.84-.791 1.29-.509 3.001-1.187 5.076-2.001a595.444 595.444 0 0 0 16.622-6.839 578.051 578.051 0 0 0 16.376-7.358c2.016-.938 3.68-1.718 4.935-2.306 1.172-.554 1.828-.825 1.84-.791Zm-15.274-14.649c.117.124-6.318 6.047-14.371 13.248-8.054 7.2-14.677 12.942-14.794 12.817-.117-.124 6.318-6.047 14.372-13.247 8.053-7.2 14.676-12.942 14.793-12.818Z"/><path fill="#162A45" d="M183.876 112.493c0-12.162-15.075-12.761-22.694-9.732-4.103-5.414-7.045-8.15-16.47-8.726-6.928-.418-17.489 2.928-22.811 9.653-5.322 6.725-6.377 16.299-2.825 24.042 1.172 2.554 2.848 5.132 2.52 7.923-.481 4.024-4.759 6.387-7.526 9.427-4.642 5.098-4.97 13.372-.738 18.786 2.684 3.437 6.951 5.844 8.37 9.913 1.195 3.414.07 7.144.293 10.738.41 6.601 5.603 12.389 11.991 14.819 6.377 2.43 13.68 1.854 20.127-.407"/><path fill="#EFAD9C" d="m128.747 240.073 23.631-10.207.809-15.248s-17.771-2.532-21.85-24.765c-2.028-11.055-1.782-29.242-1.09-44.117.633-13.383 15.321-27.003 29.165-25.828l44.966 7.449-.012 7.2.41 91.828 23.257 10.919-52.75 60.088-46.536-57.319Z"/><path fill="#162A45" d="M138.64 161.515c-.023 1.515 1.278 2.781 2.907 2.837 1.629.057 2.977-1.119 3.013-2.633.023-1.515-1.278-2.781-2.907-2.838-1.642-.056-2.99 1.131-3.013 2.634Zm-4.126-6.386c.375.362 2.59-1.277 5.779-1.323 3.188-.09 5.556 1.447 5.896 1.074.164-.169-.223-.836-1.254-1.537-1.02-.701-2.743-1.356-4.724-1.322-1.981.045-3.646.779-4.595 1.514-.973.746-1.29 1.424-1.102 1.594Zm33.936 6.431c-.024 1.515 1.277 2.781 2.907 2.837 1.629.057 2.977-1.119 3.012-2.633.024-1.515-1.278-2.781-2.907-2.837-1.641-.057-2.989 1.119-3.012 2.633Zm-2.568-6.397c.375.361 2.591-1.278 5.779-1.323 3.189-.09 5.557 1.447 5.896 1.074.165-.169-.222-.836-1.254-1.537-1.02-.701-2.743-1.357-4.724-1.323-1.993.046-3.645.78-4.595 1.515-.961.746-1.289 1.424-1.102 1.594Zm-11.159 23.013c.011-.169-1.981-.475-5.193-.814-.821-.068-1.594-.214-1.735-.746-.199-.565.117-1.413.504-2.339.727-1.911 1.5-3.923 2.298-6.025 3.188-8.579 5.486-15.621 5.122-15.734-.363-.125-3.235 6.725-6.424 15.304-.762 2.114-1.5 4.126-2.192 6.059-.293.893-.808 1.921-.363 3.086.234.587.832.994 1.36 1.13.527.147.984.147 1.383.158 3.224.113 5.228.091 5.24-.079Z"/><path fill="#AD6253" d="M153.187 214.618s15.567.701 30.818-8.5c0 0-7.936 15.711-31.111 14.027l.293-5.527Zm3.024-29.049c1.126-1.481 3.119-2.317 5.111-2.148 1.384.124 2.802.735 3.658 1.809.855 1.073 1.066 2.611.316 3.662-.844 1.187-2.637 1.481-4.161 1.096-1.536-.395-2.86-1.334-4.126-2.272-.352-.26-.704-.531-.926-.893-.223-.361-.282-.836-.012-1.141"/><path fill="#162A45" d="M164.147 180.143c-.515-.023-.468 3.323-3.387 5.742-2.919 2.43-6.611 2.114-6.635 2.588-.047.215.832.633 2.391.645 1.524.022 3.751-.486 5.545-1.967 1.782-1.481 2.52-3.436 2.614-4.804.117-1.413-.293-2.227-.528-2.204Zm.692-37.018c.328.836 3.505.384 7.256.746 3.763.294 6.799 1.3 7.279.542.211-.361-.328-1.141-1.559-1.933-1.219-.791-3.165-1.526-5.415-1.729-2.251-.203-4.302.181-5.65.735-1.384.565-2.063 1.243-1.911 1.639Zm-29.317 3.074c.574.69 2.755-.079 5.404-.158 2.637-.17 4.888.384 5.392-.35.223-.362-.141-1.052-1.137-1.696-.973-.644-2.602-1.153-4.407-1.074-1.817.091-3.376.746-4.279 1.481-.938.735-1.231 1.458-.973 1.797Zm-11.37-27.579c3.528 7.878 11.593 19.656 20.431 20.684 8.827 1.029 18.099-2.746 23.48-9.585 1.336 6.353 8.651 9.721 15.274 10.772 4.688.746 9.635.792 14.043-.915 4.407-1.707 8.194-5.415 8.897-9.936.715-4.532-5.978-15.655-10.644-16.503"/><path fill="#162A45" d="M184.931 134.41c-1.536 3.289-1.653 7.166-.328 10.546 1.324 3.38 4.067 6.205 7.467 7.709-3.271 3.911-3.845 9.438-2.603 14.31 1.243 4.871 4.091 9.212 7.151 13.27 0 0-7.948 11.088 8.053 19.181 0 0 11.23-3.357 6.213-19.679-.352-1.153-.387-2.486.199-3.549.563-1.017 1.735-1.548 2.778-2.114 4.173-2.238 7.373-6.103 8.71-10.512 1.336-4.419.808-9.336-1.454-13.383-.61-1.085-1.336-2.136-1.559-3.345-.328-1.832-1.77-6.624-1.114-8.365 3.435-9.144-.984-20.504-12.109-26.144-8.92-4.533-20.091-5.279-26.925 1.876"/><path fill="#437DAF" d="m247.035 312.222 15.203-57.465-42.739-22.686-41.262 61.32-37.37-59.636-38.507 16.808c-2.532 1.108-4.572 3.052-5.732 5.494l-34.815 90.832 47.076 14.661 5.392-21.058 6.201 36.362-17.911 95.422 153.712-.542-27.242-97.966 3.786-21.849 14.208-39.697Z"/><path fill="#000" d="M117.986 386.733c10.526 1.718 20.056-7.291 30.735-7.37 9.858-.068 18.04 7.381 27.641 9.54 4.231.95 8.85.916 12.507 3.154 2.814 1.718 4.642 4.532 6.6 7.132 9.249 12.264 23.221 21.126 38.566 24.449 2.356.509 7.596 2.215 9.049.35l-1.559-5.911-1.336-17.758-51.507-36.114-58.787 2.77-11.909 19.758Z" opacity=".3"/><path fill="#162A45" d="M230.893 303.552h-31.802v5.076h31.802v-5.076Z"/><path fill="#437DAF" d="M233.062 365.562c12.835 4.408 26.925 3.741 40.406 1.831 3.2-.452 6.541-1.04 9.073-2.996.844-.655 2.883-2.317 2.848-2.701-.093-1.187-2.321-2.769-3.622-3.753-9.717-7.324-22.835-10.286-34.92-7.878-3.212.644-6.4 1.662-9.132 3.425-2.731 1.763-4.442 2.735-5.38 5.764"/><path fill="#000" d="M233.062 365.562c12.835 4.408 26.925 3.741 40.406 1.831 3.2-.452 6.541-1.04 9.073-2.996.844-.655 2.883-2.317 2.848-2.701-.093-1.187-2.321-2.769-3.622-3.753-9.717-7.324-22.835-10.286-34.92-7.878-3.212.644-6.4 1.662-9.132 3.425-2.731 1.763-4.442 2.735-5.38 5.764" opacity=".3"/><path fill="#437DAF" d="M285.378 361.685s-13.504-77.665-14.336-84.594c-2.087-17.181-8.804-22.674-8.804-22.674l-31.345 92.494 2.169 18.639c0 .012 9.905-14.366 52.316-3.865Z"/><path fill="#162A45" d="M268.099 299.314c.036.011-.175.7-.586 1.921-.41 1.232-1.066 2.984-1.946 5.132-1.758 4.295-4.513 10.105-8.228 16.175-3.716 6.07-7.679 11.201-10.761 14.739-1.536 1.775-2.825 3.165-3.751 4.092-.927.938-1.454 1.436-1.477 1.402-.036-.023.433-.588 1.301-1.56.879-.972 2.11-2.408 3.598-4.205a127.868 127.868 0 0 0 10.562-14.773c3.704-6.036 6.506-11.801 8.358-16.04a163.124 163.124 0 0 0 2.122-5.052c.492-1.176.773-1.843.808-1.831Zm-147.827 75.675c-.012 0-.036-.08-.071-.249a31.712 31.712 0 0 0-.14-.746c-.118-.712-.27-1.673-.469-2.894-.446-2.566-1.079-6.183-1.852-10.625-1.606-8.963-3.916-21.34-6.506-35.006-2.579-13.643-4.912-25.997-6.611-34.995-.809-4.442-1.466-8.059-1.923-10.625-.199-1.221-.352-2.181-.469-2.893-.035-.306-.058-.554-.082-.758-.012-.169-.023-.26-.012-.26.012 0 .036.091.071.26.035.204.094.452.152.746.141.712.34 1.662.586 2.871.516 2.555 1.231 6.161 2.122 10.58 1.77 8.941 4.196 21.295 6.787 34.961 2.591 13.666 4.841 26.054 6.33 35.04.75 4.499 1.301 8.138 1.665 10.659.152 1.221.269 2.193.351 2.916.035.305.059.554.082.758 0 .169 0 .26-.011.26Zm129.084-93.625c.023 0-.036.305-.165.871-.14.621-.339 1.446-.574 2.475-.527 2.204-1.278 5.301-2.192 9.088-1.852 7.675-4.431 18.266-7.174 29.999-2.743 11.732-5.099 22.369-6.682 30.1-.773 3.866-1.406 6.997-1.793 9.167-.199 1.04-.352 1.876-.469 2.498-.117.565-.187.87-.199.87-.024 0 .012-.305.082-.881.094-.633.211-1.47.352-2.521.304-2.181.879-5.324 1.594-9.212 1.465-7.754 3.763-18.413 6.506-30.157a1353.837 1353.837 0 0 1 7.349-29.965c.997-3.775 1.806-6.85 2.38-9.043.281-1.017.516-1.831.68-2.452.187-.543.293-.837.305-.837Zm-118.382-43.62c.012 0 .094.113.258.362.176.271.422.622.727 1.074.644.983 1.559 2.385 2.731 4.171 2.368 3.662 5.755 8.929 9.952 15.429l32.81 51.283-.504-.012c.492-.667 1.02-1.39 1.559-2.113 1.665-2.261 3.317-4.499 4.865-6.59l-.012.316c-11.957-19.125-22.612-36.148-30.29-48.434-3.798-6.115-6.857-11.055-8.991-14.491-1.031-1.684-1.84-3.007-2.403-3.933-.258-.43-.457-.769-.609-1.029-.129-.237-.2-.35-.188-.362.012 0 .094.102.246.328.164.249.387.577.657.995.586.915 1.43 2.215 2.496 3.877 2.169 3.413 5.287 8.308 9.144 14.389 7.725 12.252 18.427 29.241 30.454 48.332l.105.17-.117.158c-1.547 2.103-3.2 4.341-4.865 6.601-.539.724-1.066 1.447-1.559 2.114l-.269.362-.246-.385c-12.789-20.131-24.312-38.25-32.647-51.373-4.126-6.544-7.467-11.834-9.787-15.53-1.126-1.82-2.017-3.233-2.626-4.228-.282-.463-.504-.836-.668-1.108-.153-.237-.223-.373-.223-.373Z"/><path fill="#162A45" d="M219.499 231.731c.012 0-.058.113-.187.328-.153.238-.34.543-.586.927-.551.837-1.325 2.023-2.321 3.549-2.063 3.097-5.017 7.551-8.675 13.056-7.42 11.065-17.688 26.404-29.235 43.63v-.316c1.29 2.034 2.661 4.193 4.056 6.375.446.712.903 1.413 1.313 2.068l-.516-.011c6.26-9.02 12.039-17.701 17.314-25.557 5.275-7.867 10.104-14.875 14.301-20.662a437.448 437.448 0 0 1 10.175-13.519c1.23-1.537 2.192-2.735 2.872-3.583.316-.384.574-.689.761-.927.176-.203.27-.305.27-.305.012.011-.07.124-.223.339-.175.237-.41.554-.715.961-.656.859-1.582 2.091-2.778 3.651a571.573 571.573 0 0 0-10.011 13.609c-4.149 5.81-8.932 12.84-14.183 20.719-5.252 7.878-11.019 16.57-17.279 25.59l-.269.385-.246-.396c-.411-.656-.868-1.356-1.313-2.068-1.384-2.182-2.755-4.352-4.056-6.387l-.106-.158.106-.158c11.605-17.181 21.944-32.486 29.399-43.529 3.728-5.471 6.728-9.879 8.827-12.965 1.031-1.492 1.84-2.667 2.414-3.493.27-.373.481-.667.633-.893.165-.158.247-.26.258-.26Z"/><path fill="#EBEBEB" d="M135.545 340.457c-5.603-2.328-11.077.69-12.988 4.25-1.91 3.561-1.371 8.466 1.407 11.315 2.778 2.848 9.507 4.792 12.636 1.356l-1.055-16.921Z"/><path fill="#162A45" d="M135.545 340.457c.024-.023.082.395.153 1.198.07.882.176 2.035.293 3.447.223 3.086.527 7.302.891 12.253l.011.113-.082.079c-1.289 1.413-3.411 2.091-5.462 1.922-2.063-.113-4.162-.791-5.99-1.967-1.782-1.096-3.036-2.837-3.646-4.646-.633-1.819-.703-3.707-.387-5.425.329-1.718 1.079-3.301 2.169-4.454 1.055-1.186 2.321-2.012 3.564-2.554a10.455 10.455 0 0 1 6.294-.723c1.466.316 2.239.768 2.192.757-.058.045-.773-.283-2.239-.543a10.468 10.468 0 0 0-6.06.871c-2.356 1.051-4.829 3.379-5.369 6.725-.281 1.639-.199 3.436.399 5.143.586 1.718 1.735 3.312 3.411 4.34 1.735 1.108 3.739 1.764 5.685 1.888 1.946.158 3.845-.452 5.017-1.695l-.07.192c-.258-4.906-.469-9.088-.633-12.14-.059-1.435-.105-2.611-.141-3.504-.023-.814-.023-1.266 0-1.277Z"/><path fill="#162A45" d="M127.176 340.457s3.341-66.395 5.064-75.912c1.723-9.518 6.154-24.913 13.129-34.215 6.669-8.896 7.326-9.518 7.326-9.518l-.446 8.286s-9.623 15.338-13.386 34.441c-3.704 18.808-6.26 76.918-6.26 76.918h-5.427Z"/><path fill="#E0E0E0" d="M225.02 352.314c-1.84 0-3.762-.373-5.685-1.13l.879-2.091c1.852.723 4.666 1.413 7.585.588 2.52-.713 4.642-2.578 5.556-4.861.961-2.43.598-5.188.117-7.076-.434-1.707-1.078-3.334-1.758-5.052-.293-.735-.586-1.47-.856-2.216-4.923-13.349-4.079-28.292-3.329-41.483l2.344.125c-.738 12.976-1.57 27.67 3.201 40.601.269.723.55 1.447.832 2.17.68 1.707 1.371 3.47 1.84 5.324.797 3.154.727 6.07-.199 8.421-1.172 2.973-3.821 5.301-7.08 6.228a12.99 12.99 0 0 1-3.447.452Z"/><path fill="#EBEBEB" d="M224.809 353.32c-3.915 0-7.338-1.775-10.327-5.324-3.868-4.589-4.478-15.983-5.029-26.031-.199-3.595-.375-6.986-.703-9.45-1.149-8.692-6.318-20.334-6.365-20.447l2.157-.893c.223.486 5.345 12.049 6.541 21.058.34 2.543.527 5.979.715 9.607.504 9.224 1.125 20.697 4.501 24.721 5.111 6.069 11.312 6.002 20.104-.193l1.383 1.832c-4.83 3.413-9.143 5.12-12.977 5.12Z"/><path fill="#162A45" d="M233.062 348.335c.492-1.152 1.02-2.294 1.793-3.255.774-.961 1.841-1.707 3.025-1.842 1.184-.136 2.485.463 3 1.593.493 1.086.2 2.442-.539 3.357-.738.916-1.852 1.413-2.977 1.606-1.126.192-2.274.113-3.411.033m-24.289-100.011c2.673 3.188 14.395 18.244 15.825 39.426h4.877s-.012-23.613-19.025-44.49c1.219-3.933 2.25-7.946 2.684-11.495 1.078-8.839-8.979-14.186-8.979-14.186l.035 6.692s4.314 2.181 4.091 6.94c-.211 4.759-3.927 14.875-7.549 23.601-1.747 4.205-4.372 11.292-3.986 22.618.34 9.89 4.349 14.378 4.349 14.378l4.842-1.978s-2.896-3.493-4.15-13.056c-.961-7.29 1.289-13.01 3.224-18.288.973-2.589 2.379-6.194 3.762-10.162Z"/><path fill="#EFAD9C" d="m69.573 349.07-5.884 21.555c-1.9 6.963-.13 14.536 5.122 19.656.317.305.645.599.973.893 6.248 5.381 15.11 6.907 22.893 3.922l60.733-23.25-8.968-26.393L98.48 358.09l-28.907-9.02Z"/><path fill="#162A45" d="m119.404 313.148 11.007 56.483c.481 2.464 2.755 4.216 5.357 4.125l84.095-3.097c2.895-.102 5.146-2.441 5.052-5.233l-1.922-53.397c-.094-2.724-2.415-4.883-5.252-4.883h-93.179c-3.282 0-5.767 2.883-5.158 6.002Z"/><path fill="#EFAD9C" d="M211.282 336.15c-3.223 0-6.13 1.898-7.291 4.803-1.219 3.052-3.001 6.624-4.97 7.664-3.646 1.922-9.941 3.448-13.258 1.888-3.317-1.56-16.575-13.067-18.896-11.79-2.321 1.278-4.314 4.16-1.993 6.715 2.321 2.554 14.583 10.229 12.262 12.783-2.321 2.555-28.18-8.703-32.154-7.708-3.974.994-6.295 3.345-3.974 4.894 2.321 1.537 19.892 7.935 20.889 10.173 0 0-26.516-6.714-27.512-5.109-.996 1.594-2.649 4.159 0 5.109 2.649.961 25.531 6.714 27.512 7.675 1.993.961 8.838 2.871 10.222 2.871.726 0 5.919 1.673 10.678 3.266a24.186 24.186 0 0 0 16.493-.429l2.685-1.051c4.173-1.639 6.81-5.663 6.541-10.015l-.539-8.715 2.895-7.189.41-15.835Z"/><path fill="#EFAD9C" d="M190.042 380.617s48.4 42.24 64.694 42.353c17.173.124 26.832-17.057 25.003-27.727-.972-5.697-3.528-35.481-3.528-35.481-11.499-3.029-28.684-4.385-40.934 3.47l4.455 17.385-32.295-15.056-17.395 15.056Z"/><path fill="#162A45" d="M285.378 361.684c0 .022-.199-.012-.551-.091-.422-.102-.938-.215-1.559-.362-1.348-.316-3.306-.791-5.744-1.311-4.853-1.017-11.64-2.339-19.224-2.147-3.787.101-7.373.554-10.597 1.153-3.224.576-6.06 1.39-8.323 2.362-2.262.961-3.915 2.091-4.97 2.95-1.055.87-1.547 1.436-1.594 1.402-.012-.012.094-.158.328-.441.223-.283.598-.667 1.102-1.13 1.02-.927 2.673-2.125 4.947-3.154s5.146-1.899 8.393-2.521c3.235-.633 6.857-1.107 10.69-1.209 7.667-.192 14.501 1.198 19.342 2.328 2.426.577 4.36 1.108 5.697 1.504.609.181 1.113.339 1.535.463.364.124.54.192.528.204Z"/><path fill="#E0E0E0" d="M309.743 187.258h-.28c-2.542 0-4.602-1.987-4.602-4.438v-43.432c0-2.451 2.06-4.438 4.602-4.438h.28c2.541 0 4.601 1.987 4.601 4.438v43.432c0 2.451-2.06 4.438-4.601 4.438Z"/><path fill="#E2817F" d="M309.743 187.258h-.28c-2.542 0-4.602-1.987-4.602-4.438v-27.8c0-2.45 2.06-4.437 4.602-4.437h.28c2.541 0 4.601 1.987 4.601 4.437v27.8c0 2.451-2.06 4.438-4.601 4.438Z"/><path fill="#E0E0E0" d="M325.272 187.258h-.28c-2.542 0-4.602-1.987-4.602-4.438v-43.432c0-2.451 2.06-4.438 4.602-4.438h.28c2.541 0 4.601 1.987 4.601 4.438v43.432c0 2.451-2.06 4.438-4.601 4.438Z"/><path fill="#E2817F" d="M325.272 187.258h-.28c-2.542 0-4.602-1.987-4.602-4.437v-19.693c0-2.45 2.06-4.437 4.602-4.437h.28c2.541 0 4.601 1.987 4.601 4.437v19.693c0 2.45-2.06 4.437-4.601 4.437Z"/><path fill="#E0E0E0" d="M342.839 187.258h-.28c-2.542 0-4.602-1.987-4.602-4.438v-43.432c0-2.451 2.06-4.438 4.602-4.438h.28c2.541 0 4.601 1.987 4.601 4.438v43.432c0 2.451-2.06 4.438-4.601 4.438Z"/><path fill="#E2817F" d="M342.839 187.257h-.28c-2.542 0-4.602-1.986-4.602-4.437v-33.986c0-2.451 2.06-4.437 4.602-4.437h.28c2.541 0 4.601 1.986 4.601 4.437v33.986c0 2.451-2.06 4.437-4.601 4.437Z"/><path fill="#162A45" d="M309.743 187.258c0-.033.425-.011 1.186-.216a4.52 4.52 0 0 0 2.643-1.965c.38-.605.638-1.382.638-2.246-.011-.885-.011-1.857-.023-2.882-.011-2.084-.022-4.438-.044-7.039-.023-5.226-.034-11.433-.067-18.321 0-3.444-.012-7.072-.023-10.818v-2.84c-.022-.96.09-1.932-.19-2.785-.549-1.76-2.396-3.044-4.389-2.915-1.959-.021-3.762 1.371-4.188 3.153-.223.863-.1 1.857-.134 2.807v2.839c-.011 3.746-.011 7.374-.022 10.818-.023 6.888-.045 13.095-.067 18.321-.012 2.602-.034 4.955-.045 7.039 0 1.036-.034 2.008-.011 2.882.044.864.358 1.62.772 2.203.851 1.187 2.015 1.641 2.754 1.814.784.161 1.21.118 1.21.151 0 0-.426.086-1.221-.033a4.7 4.7 0 0 1-2.922-1.803 4.366 4.366 0 0 1-.862-2.321c-.034-.907-.023-1.857-.034-2.893-.011-2.084-.022-4.437-.045-7.039-.022-5.226-.033-11.433-.067-18.321 0-3.455-.011-7.072-.022-10.818v-4.275c-.011-.465.011-1.015.145-1.501.471-2.03 2.531-3.617 4.748-3.584 1.063-.054 2.194.248 3.067.853a4.784 4.784 0 0 1 1.87 2.461c.157.486.213 1.015.224 1.512v4.275c-.011 3.746-.011 7.374-.022 10.818-.023 6.888-.045 13.095-.067 18.321-.012 2.601-.034 4.955-.045 7.039-.011 1.036-.023 1.997-.023 2.882-.022.918-.302 1.738-.727 2.365a4.575 4.575 0 0 1-2.799 1.965c-.773.172-1.198.097-1.198.097Zm15.529 0c0-.033.425-.011 1.187-.216a4.514 4.514 0 0 0 2.642-1.965 4.23 4.23 0 0 0 .638-2.246c-.011-.885-.011-1.857-.022-2.882-.011-2.084-.023-4.437-.045-7.039-.022-5.226-.034-11.433-.067-18.321 0-3.444-.011-7.072-.023-10.818v-2.839c-.022-.961.09-1.933-.19-2.786-.549-1.76-2.396-3.044-4.389-2.915-1.959-.021-3.762 1.371-4.187 3.153-.224.863-.101 1.857-.135 2.807v2.839c-.011 3.746-.011 7.374-.022 10.818-.022 6.888-.045 13.096-.067 18.321-.011 2.602-.034 4.955-.045 7.039 0 1.036-.034 2.008-.011 2.882.045.864.358 1.62.772 2.203.851 1.187 2.016 1.641 2.755 1.814.783.162 1.209.118 1.209.151 0 0-.426.086-1.221-.033a4.703 4.703 0 0 1-2.922-1.803 4.366 4.366 0 0 1-.862-2.321c-.033-.907-.022-1.857-.033-2.893-.012-2.084-.023-4.437-.045-7.039-.023-5.225-.034-11.433-.067-18.321 0-3.455-.012-7.072-.023-10.818v-4.275c-.011-.464.011-1.015.146-1.501.47-2.03 2.53-3.617 4.747-3.584 1.064-.054 2.194.248 3.068.853a4.79 4.79 0 0 1 1.869 2.461c.157.486.213 1.015.224 1.512v4.275c-.011 3.746-.011 7.374-.022 10.818-.022 6.888-.045 13.095-.067 18.321-.011 2.602-.034 4.955-.045 7.039-.011 1.036-.022 1.997-.022 2.882-.023.918-.303 1.739-.728 2.365a4.575 4.575 0 0 1-2.799 1.965c-.773.172-1.198.097-1.198.097Zm17.566 0c0-.033.426-.011 1.187-.216a4.515 4.515 0 0 0 2.643-1.965c.38-.605.638-1.382.638-2.246-.011-.885-.011-1.857-.023-2.882-.011-2.084-.022-4.437-.044-7.039-.023-5.226-.034-11.433-.068-18.321 0-3.444-.011-7.072-.022-10.818v-2.839c-.022-.961.09-1.933-.19-2.786-.549-1.76-2.396-3.044-4.389-2.915-1.96-.021-3.762 1.371-4.188 3.153-.224.863-.1 1.857-.134 2.807v2.839c-.011 3.746-.011 7.374-.022 10.818-.023 6.888-.045 13.096-.068 18.321-.011 2.602-.033 4.955-.044 7.039 0 1.036-.034 2.008-.012 2.882.045.864.359 1.62.773 2.203.851 1.187 2.015 1.641 2.754 1.814.784.162 1.209.118 1.209.151 0 0-.425.086-1.22-.033a4.7 4.7 0 0 1-2.922-1.803 4.366 4.366 0 0 1-.862-2.321c-.034-.907-.023-1.857-.034-2.893-.011-2.084-.022-4.437-.045-7.039-.022-5.225-.033-11.433-.067-18.321 0-3.455-.011-7.072-.022-10.818v-4.275c-.011-.464.011-1.015.145-1.501.471-2.03 2.531-3.617 4.748-3.584 1.063-.054 2.194.248 3.067.853a4.792 4.792 0 0 1 1.87 2.461c.157.486.213 1.015.224 1.512v4.275c-.011 3.746-.011 7.374-.022 10.818-.023 6.888-.045 13.095-.068 18.321-.011 2.602-.033 4.955-.044 7.039a256.106 256.106 0 0 0-.023 2.882c-.022.918-.302 1.739-.727 2.365a4.574 4.574 0 0 1-2.8 1.965c-.772.172-1.198.097-1.198.097Z"/><path fill="#162A45" d="M326.156 101.115c0-.021.347-.032 1.03-.021.739.021 1.747.043 3.012.086.661.032 1.411.032 2.217.097.817.108 1.702.227 2.653.357.963.129 1.993.28 3.102.431 1.086.259 2.239.54 3.459.832 4.871 1.209 10.771 3.271 16.795 7.06 6.023 3.725 12.282 9.058 17.365 16.313 4.982 7.255 8.834 16.389 9.853 26.645.101 2.57.425 5.171.168 7.827-.101 1.328-.067 2.667-.269 4.006-.213 1.338-.414 2.677-.627 4.037-1.131 5.355-2.788 10.829-5.643 15.936a61.42 61.42 0 0 1-10.793 14.326 62.54 62.54 0 0 1-15.552 10.775c-5.81 2.861-12.248 4.836-18.955 5.614-1.657.313-3.359.313-5.061.41-1.701.108-3.403.162-5.105.086a63.126 63.126 0 0 1-10.233-1.241c-7.367-1.512-14.298-4.405-20.377-8.27l.615.065c-7.065 2.731-13.995 5.419-20.757 8.032l-1.232.475.347-1.231 6.102-21.398.101.529c-5.822-7.46-9.539-15.989-11.073-24.453-.773-4.232-1.098-8.453-.806-12.524.089-2.04.19-4.059.593-6.013l.47-2.926c.191-.961.493-1.9.728-2.839 4.008-15.093 13.626-26.213 23.154-32.583 4.769-3.239 9.472-5.56 13.782-7.007 1.075-.367 2.105-.723 3.102-1.068 1.018-.249 2.004-.486 2.944-.724.941-.226 1.836-.442 2.699-.647.862-.162 1.701-.249 2.485-.368 1.568-.194 2.945-.453 4.154-.507 1.187-.043 2.206-.076 3.045-.097.773-.022 1.389-.032 1.859-.043.436 0 .649 0 .649.021 0 .022-.213.043-.627.087-.47.032-1.086.086-1.858.14l-3.035.194c-1.198.087-2.563.378-4.12.605-6.113 1.08-15.271 3.433-24.62 10.03-9.349 6.369-18.72 17.392-22.583 32.194-.224.917-.526 1.835-.694 2.785-.146.95-.302 1.911-.448 2.872-.381 1.921-.47 3.897-.549 5.905-.268 4.006.068 8.141.84 12.286 1.534 8.292 5.206 16.626 10.928 23.924l.19.238-.078.291c-1.96 6.91-3.975 14.068-6.058 21.409l-.873-.756a29280.46 29280.46 0 0 0 20.747-8.053l.324-.13.291.184c5.957 3.778 12.731 6.596 19.93 8.075 3.314.68 6.662 1.09 10.009 1.22 1.668.076 3.337.022 4.994-.086 1.657-.098 3.325-.087 4.948-.4 6.55-.745 12.854-2.677 18.541-5.463a61.538 61.538 0 0 0 15.238-10.515 60.59 60.59 0 0 0 10.603-13.992c2.822-4.988 4.445-10.353 5.576-15.589.213-1.328.425-2.646.638-3.952.202-1.306.179-2.634.28-3.93.269-2.602-.045-5.16-.123-7.686-.952-10.073-4.68-19.056-9.528-26.235-4.949-7.169-11.073-12.47-16.985-16.216-5.911-3.8-11.722-5.916-16.525-7.179-1.21-.313-2.352-.605-3.426-.875-1.086-.173-2.116-.334-3.068-.486-.952-.151-1.825-.291-2.631-.421-.806-.086-1.545-.108-2.206-.162-1.265-.086-2.262-.162-3.001-.205-.694-.043-1.041-.086-1.041-.108Z"/></g><defs><clipPath id="ga"><path fill="#fff" d="M0 0h426v471H0z" transform="translate(0 .5)"/></clipPath></defs></symbol><symbol fill="none" viewBox="0 0 131 128" id="svg-sign-up"><g clip-path="url(#ha)"><path fill="#E2817F" d="M56.619 40.875c-3.634 6.633-7.264 13.266-10.898 19.898-3.615 6.607-7.354 13.823-6.252 21.274.567 3.828 2.405 7.39 4.84 10.397 6.304 7.795 17.475 11.895 26.872 8.411 9.396-3.485 15.256-15.331 10.95-24.384-2.103-4.422-6.065-7.623-9.12-11.447-5.733-7.182-16.392-24.15-16.392-24.15Z"/><path fill="#3E497A" d="M55.274 40.087c-3.686 6.73-7.38 13.456-11.055 20.19-3.211 5.886-6.532 12.265-6.502 19.148.056 11.835 10.685 21.829 21.878 23.82 10.831 1.927 21.378-3.895 24.665-14.588 1.501-4.889 1.02-10.18-1.655-14.573-2.924-4.8-7.387-8.53-10.696-13.072-4.934-6.77-9.494-13.83-13.95-20.922-1.064-1.691-3.757-.13-2.689 1.573a477.478 477.478 0 0 0 10.271 15.686c2.323 3.395 4.657 6.838 7.35 9.953 3.578 4.145 8.22 7.985 9 13.736 1.334 9.804-6.901 18.868-16.51 19.473-10.72.672-22.118-7.234-24.254-17.979-1.434-7.208 2.282-14.267 5.617-20.392 3.72-6.838 7.477-13.654 11.216-20.481.967-1.76-1.722-3.331-2.686-1.572Z"/><path fill="#3E497A" d="M82.919 21.73h1.546c4.706 0 9.412-.015 14.117.004 3.698.015 6.073 2.35 6.073 6.006a75280.52 75280.52 0 0 1-.063 91.408c0 1.131-.344 2.267-.549 3.529.463.101 1.135.123 1.684.396.534.265 1.307.773 1.315 1.187.011.557-.486 1.39-.99 1.636-.979.475-2.106.829-3.19.874-9.818.43-19.633.994-29.456 1.109-15.465.183-30.93.06-46.4.038-1.247-.004-2.525-.109-3.738-.374-5.125-1.124-7.885-4.403-8.288-10.158-.194-2.768.075-5.569.138-8.351.015-.605.071-1.21.056-1.811-.508-20.68-1.042-41.355-1.527-62.035-.112-4.69-.579-9.407.72-14.031.957-3.41 2.383-6.52 5.73-8.205 1.202-.605 2.595-1.124 3.918-1.162 4.888-.134 9.78-.052 14.673-.056h1.685c0-2.39-.038-4.616.01-6.838.038-1.677.55-2.088 2.253-2.084 2.883.007 5.766.004 8.732.004.321-1.158.59-2.477 1.05-3.724 1.392-3.753 3.682-6.674 7.73-7.81 2.383-.668 4.631-.171 6.738.98 3.813 2.08 6.166 5.351 7.212 9.5.298 1.192.776 1.464 1.878 1.412 1.625-.074 3.26-.007 4.889.015 1.778.026 2.11.43 2.073 2.174-.053 2.046-.02 4.097-.02 6.367Zm-42.632 3.052c-.422-.023-.785-.056-1.147-.056-5.03-.004-10.061-.008-15.092 0-2.375.004-3.26.907-3.26 3.32-.004 30.184-.004 60.372 0 90.556 0 2.316.885 3.227 3.197 3.246 24.825.19 49.65.377 74.478.556 2.185.015 3.16-.948 3.16-3.144.029-30.42.056-60.836.074-91.255 0-2.383-.919-3.272-3.309-3.275-4.799-.008-9.594-.004-14.394 0-.444 0-.888.052-1.318.082-.086.81-.13 1.46-.228 2.102-.743 4.896-1.217 5.524-6.166 5.688-9.023.3-18.057.419-27.084.478-2.405.015-4.81-.455-7.216-.732-1.303-.15-1.785-.91-1.714-2.222.09-1.725.019-3.447.019-5.344Zm3.01-8.84v13.78c.445.057.762.131 1.08.131 9.822.042 19.644.094 29.467.09 1.389 0 2.786-.209 4.156-.456.441-.078 1.12-.552 1.15-.896.37-4.104.64-8.22.945-12.489-2.278 0-4.224.004-6.17 0-1.75-.003-2.016-.269-2.319-2.046-.724-4.24-2.745-7.597-6.733-9.502-2.204-1.053-4.34-.78-6.308.691-2.652 1.98-3.701 4.81-4.183 7.93-.43 2.774-.433 2.785-3.227 2.77-2.6-.015-5.195-.003-7.858-.003Zm71.946-4.191c.314.28.9.56 1.038.986.146.445.049 1.255-.265 1.513-2.431 2.013-4.911 3.981-7.469 5.833-.366.266-1.475.053-1.789-.32-.303-.363-.288-1.525.041-1.8 2.409-2.044 4.922-3.96 7.421-5.898.205-.16.523-.168 1.023-.314Zm-14.132 5.356c.848-3.111 1.55-5.905 2.424-8.639.13-.41 1.176-.877 1.628-.747.471.139 1.12 1.061 1.023 1.494a94.229 94.229 0 0 1-2.188 8.202c-.138.437-1.098.904-1.621.844-.486-.06-.896-.796-1.266-1.154Zm8.963 7.013c2.383.43 4.307.759 6.219 1.129.922.179 1.385.799 1.199 1.721-.191.93-.901 1.274-1.793 1.128a284.28 284.28 0 0 1-5.621-1c-.919-.172-1.52-.781-1.221-1.663.194-.586.911-1 1.217-1.314Z"/><path fill="#3E497A" d="M60.914 19.983c2.465 0 4.933.01 7.398-.004 1.031-.008 1.939.19 1.957 1.434.02 1.247-.874 1.475-1.912 1.475a3445.07 3445.07 0 0 0-15.215 0c-1.03.004-1.942-.194-1.957-1.434-.011-1.232.859-1.483 1.912-1.475 2.603.018 5.21.004 7.817.004Zm1.497-5.801c-1.867-.003-3.305-1.508-3.279-3.428.023-1.74 1.494-3.25 3.171-3.257 1.83-.007 3.503 1.573 3.489 3.298-.016 1.812-1.591 3.391-3.38 3.387Zm-3.881 69.31 12.083-12.74c.284-.298.549-.761.889-.828.53-.109 1.27-.139 1.632.153.291.235.22 1.004.183 1.527-.015.232-.336.448-.534.658a12358.7 12358.7 0 0 1-12.717 13.404c-1.188 1.25-1.61 1.262-2.887.16-2.566-2.214-5.135-4.425-7.697-6.64-.654-.564-.874-1.248-.288-1.95.59-.706 1.296-.59 1.964-.037.161.13.318.265.475.4 1.972 1.699 3.944 3.402 5.916 5.101.31.265.635.512.982.792Z"/><path fill="#3E497A" d="M56.817 43.56a277.225 277.225 0 0 0-4.217 9.05 286.981 286.981 0 0 0-3.895 9.097c-1.221 3.04-2.417 6.099-3.298 9.14l-.31 1.13c-.105.378-.168.744-.258 1.114-.09.366-.153.743-.212 1.124-.068.377-.109.758-.154 1.135a25.994 25.994 0 0 0-.149 4.572 24.01 24.01 0 0 0 .639 4.507c.336 1.48.836 2.91 1.46 4.28.624 1.379 1.4 2.66 2.304 3.87a21.199 21.199 0 0 0 3.123 3.297c2.322 1.976 5.112 3.466 8.164 4.18 1.52.366 3.122.5 4.761.519 1.64.015 3.313-.075 4.99-.127-1.59.53-3.197 1.034-4.866 1.37-.837.176-1.685.303-2.551.385-.867.082-1.752.075-2.637.034-3.544-.213-7.025-1.513-9.987-3.556-2.969-2.028-5.452-4.866-7.114-8.108a24.947 24.947 0 0 1-1.939-5.075 27.935 27.935 0 0 1-.818-5.345c-.082-1.8-.007-3.6.243-5.378.068-.444.131-.889.224-1.326.083-.44.172-.881.292-1.318.115-.437.216-.885.347-1.307l.407-1.255c.13-.422.295-.818.444-1.225.154-.403.3-.814.464-1.21.328-.788.653-1.588 1.012-2.353a74.723 74.723 0 0 1 2.24-4.56c1.58-2.98 3.302-5.875 5.162-8.672.467-.699.945-1.39 1.427-2.08.493-.68.978-1.367 1.49-2.036a48.75 48.75 0 0 1 3.212-3.873Z"/></g><defs><clipPath id="ha"><path fill="#fff" d="M0 0h104.065v127H0z" transform="translate(13.467 .98)"/></clipPath></defs></symbol><symbol fill="none" viewBox="0 0 131 128" id="svg-vebinars"><g clip-path="url(#ia)"><path fill="#3E497A" d="M59.623 117.191c-16.518 0-33.036-.032-49.554.035-2.433.01-4.035-.863-5.302-2.908-1.894-3.059-2.813-6.284-3.031-9.9C.553 84.764.14 65.098.84 45.422c.279-7.854.768-15.7 1.166-23.551.18-3.524 2.049-5.267 5.566-5.513 15.518-1.095 31.053-1.585 46.61-1.592a725.892 725.892 0 0 1 49.509 1.662c1.228.084 2.492.74 3.587 1.387 1.12.662 2.13 1.563 3.052 2.496 1.792 1.806 2.887 4.003 2.905 6.576.193 28.636.359 57.275.545 85.91.007 1.183-.024 2.426-1.056 3.098-.824.535-1.918.922-2.894.926-16.736.053-33.472.039-50.209.039v.331ZM3.83 36.241v8.361c.004 13.79-.112 27.583.06 41.37.088 7.065.676 14.123 1.084 21.182.134 2.337.659 2.806 2.965 2.978 1.707.127 3.418.264 5.129.299 15.324.324 30.653.894 45.98.856 14.315-.039 28.633-.725 42.947-1.158 2.735-.081 3.182-.606 3.291-3.32.134-3.292.257-6.584.395-9.875.834-19.933.908-39.873.595-59.816-.007-.462-.078-.92-.124-1.419-34.053.183-67.955.363-102.322.542Zm102.002-3.517c0-3.69.025-7.2-.01-10.706-.018-1.872-.747-2.612-2.655-2.696-10.442-.468-20.88-1.004-31.329-1.345-16.996-.553-33.993-.243-50.98.556-4.474.211-8.945.51-13.412.8-1.602.101-2.257.75-2.419 2.38a124.671 124.671 0 0 0-.359 4.857c-.13 2.18-.232 4.362-.352 6.696 33.976-.183 67.818-.362 101.516-.542Zm1.468-18.968c.169-.574.257-.912.366-1.24 1.243-3.73 3.032-7.184 5.267-10.413.62-.89 1.366-1.524 2.394-.81 1.042.726.563 1.606.07 2.539-1.682 3.165-3.274 6.379-4.893 9.575-.159.31-.201.782-.444.926-.482.285-1.119.62-1.594.51-.465-.108-.814-.738-1.166-1.087Zm10.868 13.022c3.996.803 7.601 1.507 11.195 2.264.912.193 1.306.88 1.07 1.788-.26 1.004-1.031 1.229-1.954 1.046-2.746-.539-5.488-1.091-8.231-1.64-.728-.145-1.464-.258-2.182-.448-.887-.232-1.44-.88-1.12-1.746.204-.556.891-.94 1.222-1.264Zm8.667-14.201c.352.355 1.053.742 1.077 1.168.032.574-.299 1.405-.753 1.718-.848.588-1.898.88-2.862 1.3-1.933.834-3.866 1.658-5.791 2.502-.937.412-1.778.345-2.225-.644-.451-.996.056-1.665 1.003-2.07 2.82-1.204 5.636-2.422 8.456-3.626.271-.12.571-.186 1.095-.348Z"/><path fill="#3E497A" d="M80.58 63.49c0 6.498.017 12.997-.032 19.5-.003.513-.348 1.21-.76 1.51-2.542 1.858-2.169 6.108.64 7.558.469.243.948 1.155.838 1.623-.112.49-.897 1.109-1.44 1.165-2.136.215-4.294.285-6.445.31-9.358.106-18.712.225-28.07.218-2.214 0-4.512-.197-6.625-.806-2.943-.848-5.347-2.63-5.77-5.985-.387-3.073-.683-6.168-.788-9.262-.328-9.741-.623-19.486-.74-29.23-.024-2.092.543-4.257 1.204-6.267.877-2.654 3.025-3.936 5.785-3.974 3.685-.05 7.371.06 11.057.056 8.7-.004 17.395-.035 26.094-.05 3.513-.006 4.992 1.462 4.992 4.922V63.49h.06ZM42.09 42.922l.934 38.806h34.45c.029-.454.071-.841.071-1.229.004-11.945.004-23.89 0-35.838 0-1.605-.27-1.855-1.968-1.848-7.995.032-15.99.077-23.981.105-3.112.015-6.224.004-9.505.004Zm33.08 41.919c-.01 0-.352-.032-.694-.035-11.28-.004-22.559-.004-33.838.003-.437 0-.88.022-1.31.099-1.588.289-3.291 1.707-3.4 2.936-.148 1.715.996 2.739 2.34 3.313 1.38.588 2.919 1.095 4.397 1.123 6.844.123 13.692.095 20.539.063 4.25-.017 8.495-.14 12.378-.208a4657.1 4657.1 0 0 0-.412-7.294ZM39.105 42.835c-2.355.007-3.277.493-3.936 2.51-.468 1.436-.806 2.996-.781 4.492.137 9.305.377 18.61.62 27.91.049 1.863.246 3.718.373 5.52 1.605-.605 3.063-1.15 4.65-1.75-.306-12.796-.612-25.688-.926-38.682Zm1.863 59.566c.2-1.239-.13-2.813 1.584-2.823 1.721-.01 1.482 1.506 1.591 2.823h36.363c1.813 0 2.598.465 2.588 1.521-.011 1.046-.8 1.507-2.61 1.507H44.222c-.247 1.088-.081 2.464-1.673 2.432-1.492-.031-1.44-1.264-1.552-2.432h-1.461c-4.876 0-9.752 0-14.628-.004-.394 0-.9.12-1.158-.077-.503-.38-1.19-.94-1.193-1.43-.007-.482.672-1.066 1.18-1.425.298-.212.851-.088 1.288-.088 4.833-.004 9.663-.004 14.497-.004h1.447Zm-30.132 1.915c0-.482-.169-1.059.039-1.422.31-.535.919-1.303 1.338-1.267.552.049 1.313.697 1.492 1.246.26.792.123 1.732.074 2.605-.05.898-.542 1.521-1.475 1.528-.933.007-1.419-.595-1.486-1.51-.028-.391-.003-.789-.003-1.183.01.003.014.003.021.003Zm5.626-.067c0-.352-.025-.704.003-1.052.078-.873.574-1.387 1.44-1.398.87-.007 1.39.507 1.465 1.37.056.654.014 1.313.02 1.971.011 1.035-.422 1.732-1.527 1.711-1.035-.021-1.43-.711-1.419-1.683.004-.306 0-.612 0-.922.01.003.014.003.018.003Z"/><path fill="#E2817F" d="M79.633 29.063c-1.87-.004-3.475-1.655-3.482-3.58-.007-1.901 1.697-3.598 3.637-3.623 1.44-.017 3.34 2.158 3.337 3.82-.003 1.859-1.58 3.387-3.492 3.383Zm16.029-3.531c-.022 1.89-1.567 3.365-3.503 3.344-1.88-.02-3.45-1.679-3.43-3.622.022-1.944 1.835-3.65 3.806-3.591 1.377.039 3.144 2.228 3.127 3.869ZM65.48 29.334c-1.915-.007-3.46-1.602-3.457-3.57.004-2.01 1.718-3.69 3.722-3.643 1.443.031 3.231 2.242 3.196 3.946-.039 1.788-1.612 3.27-3.46 3.267ZM51.754 63.405c0-2.5-.017-4.999.007-7.498.014-1.465.63-1.842 1.905-1.106 4.284 2.475 8.558 4.978 12.81 7.506 1.385.823 1.36 2.316-.08 3.098a788.69 788.69 0 0 1-12.776 6.741c-1.281.666-1.848.254-1.862-1.242-.018-2.5-.004-5-.004-7.499Z"/></g><defs><clipPath id="ia"><path fill="#fff" d="M0 0h130v116.246H0z" transform="translate(.5 .98)"/></clipPath></defs></symbol><symbol fill="none" viewBox="0 0 156 142" id="svg-vial"><g clip-path="url(#ja)"><path fill="#E2817F" d="M91.329 33.547c4.66-1.212 7.612-5.374 6.592-9.296-1.02-3.922-5.625-6.118-10.286-4.906-4.66 1.212-7.612 5.374-6.592 9.296 1.02 3.922 5.625 6.118 10.286 4.906Zm27.84-.128c6.311 0 11.428-5.116 11.428-11.428 0-6.311-5.117-11.428-11.428-11.428-6.311 0-11.428 5.117-11.428 11.428 0 6.311 5.117 11.428 11.428 11.428Z"/><path fill="#3E497A" d="M78.104 25.534c2.136-6.295 6.538-9.64 12.704-9.66 3.62-.012 6.543 1.354 8.327 4.565 1.824 3.283 1.569 6.623-.36 9.798-.812 1.333-1.83 2.537-2.786 3.847.864.928 1.828 1.877 2.692 2.91 1.232 1.48 1.427 3.47.304 5.42-1.569 2.724-2.513 5.826-3.576 8.817-.668 1.885-1.856 3.008-3.709 3.677-.563.203-1.106.957-1.317 1.573-8.096 23.529-16.256 47.037-24.173 70.626-4.938 14.699-22.247 19.081-33.027 10.552-4.568-3.616-8.687-7.775-9.96-13.876-1.03-4.938-.032-9.681 1.593-14.282 5.578-15.802 11.278-31.559 16.905-47.345 2.205-6.178 4.358-12.376 6.51-18.574.547-1.577.673-3.142.454-4.881-.64-5.136.937-9.85 3.912-13.957.815-1.127 2.7-1.768 4.204-2.056 4.658-.891 9.259.045 13.811 1.01 2.514.535 4.995 1.22 7.492 1.836Zm-35.492 49.16C38.83 85.763 35.133 96.603 31.4 107.43c-.288.831.044 1.191.624 1.605 9.494 6.794 20.054 10.499 31.733 11.034 1.087.049 1.557-.255 1.918-1.317 3.454-10.232 6.976-20.44 10.47-30.66.143-.417.244-.855.398-1.398-12.611-.332-23.853-4.269-33.93-12Zm-12.518 36.883c-3.324 7.621-3.182 14.735 2.315 21.035 4.852 5.558 11.152 7.426 18.258 5.493 7.44-2.023 11.505-7.366 13.33-14.841-12.47-.535-23.72-4.427-33.903-11.687Zm22.422-65.834c-1.476 4.313-3.077 8.768-4.504 13.28-.616 1.946.734 4.248 2.733 4.52 1.183.162 2.517-.365 3.709-.782 1.654-.58 3.186-1.57 4.868-1.991 2.976-.746 5.473.86 6.215 3.83.328 1.314.38 2.693.56 4.043.368 2.8 1.418 3.308 3.834 1.868 1.253-.745 2.46-1.625 3.807-2.152 3-1.172 5.278-.02 6.332 3.004.243.697.478 1.398.717 2.1.114.008.231.016.345.028 2.015-5.882 4.033-11.764 6.08-17.736-12.335-.936-23.71-4.609-34.696-10.013Zm-6.32 18.651c-.207.535-.446 1.034-.596 1.557-.555 1.901-1.086 3.806-1.625 5.712 1.633 1.183 3.206 2.468 4.913 3.539 8.395 5.286 17.545 8.107 27.497 8.188.519.004 1.37-.21 1.504-.547.794-1.994 1.427-4.054 2.12-6.117-1.828-.787-2.339-2.331-2.846-3.888-.596-1.836-1.285-2.148-2.995-1.232-1.2.645-2.283 1.504-3.49 2.124-3.584 1.837-6.722.349-7.55-3.592-.3-1.427-.327-2.906-.575-4.345-.28-1.626-1.066-2.262-2.65-1.885-1.25.3-2.45.912-3.593 1.524-4.252 2.274-6.461 2.08-10.114-1.038Zm7.706-32.828c-.214.823-.446 1.642-.644 2.47-1.326 5.516-1.062 6.287 3.819 9.299 7.146 4.402 14.974 7.065 23.216 8.375 3.15.502 6.421.32 9.636.3.701-.004 1.755-.483 2.035-1.046 1.03-2.1 1.804-4.322 2.635-6.401-14.967-.154-28.426-4.431-40.697-12.997Zm36.971 9.839c1.099-.142 2.854-.312 4.577-.633.418-.076 1.038-.644 1.058-1.013.073-1.52-3.275-3.75-4.73-3.243-5.615 1.954-11.347-.924-13.216-6.563-.166-.499-.783-1.062-1.297-1.196-3.71-.969-7.419-1.97-11.18-2.692-3.17-.608-6.414-.985-9.625-.13-1.8.479-2.083 1.2-.705 2.453 1.747 1.581 3.616 3.113 5.663 4.248 8.951 4.97 18.579 7.808 29.455 8.769Zm-2.825-8.61c3.47.004 6.733-1.784 8.2-4.557 1.144-2.157 1.253-4.362-.052-6.486-1.301-2.116-3.369-2.817-5.72-2.704-2.38.114-4.528.945-6.393 2.449-2.4 1.933-3.348 4.816-2.452 7.406.835 2.408 3.271 3.888 6.417 3.892Zm17.196-10.759c-.231-8.23 5.699-13.37 11.196-14.35 5.173-.925 9.657.425 13.131 4.398 3.523 4.03 4.532 8.707 2.789 13.831-1.683 4.954-4.666 8.647-9.981 10.058-7.978 2.12-17.909-4.528-17.135-13.937Zm14.01 10.05c5.983-.025 10.722-4.833 10.678-10.84-.041-5.89-4.845-10.674-10.727-10.682-5.902-.013-10.811 4.905-10.799 10.807.012 5.939 4.872 10.743 10.848 10.714ZM75.448 15.927c.207-.645.264-.949.394-1.216 2.034-4.156 4.061-8.319 6.129-12.454.53-1.062 1.41-1.719 2.574-.928 1.103.75.628 1.67.13 2.651a609.196 609.196 0 0 0-5.801 11.772c-.43.892-.896 1.731-1.983 1.399-.587-.183-1.03-.855-1.443-1.224Zm-7.183-1.135c0 .15-.004.304 0 .454.028 1.042-.345 1.82-1.472 1.917-1.151.097-1.565-.66-1.743-1.67a717.381 717.381 0 0 0-2.019-10.986c-.198-1.013.065-1.743 1.01-2.063 1.082-.37 1.82.243 2.055 1.232.884 3.669 1.686 7.358 2.517 11.034-.117.029-.235.057-.348.082ZM54.421 8.987c.252.28.912.689 1.087 1.252.912 2.96 2.44 5.493 4.722 7.589.726.665.84 1.54.15 2.286-.75.815-1.61.673-2.396-.04-2.639-2.392-4.455-5.303-5.42-8.724-.393-1.39.284-2.408 1.857-2.363Z"/><path fill="#3E497A" d="M55.187 55.123c-1.958-.012-3.344-1.41-3.312-3.328.037-1.986 1.536-3.495 3.43-3.446 1.868.049 3.38 1.658 3.352 3.568-.028 1.852-1.504 3.218-3.47 3.206Zm16.126 4.159c1.516-.012 2.712 1.216 2.745 2.818.036 1.804-1.431 3.328-3.199 3.328-1.637-.004-3.048-1.334-3.085-2.915-.044-1.686 1.634-3.215 3.54-3.23Zm13.001.203c-.032 1.342-1.13 2.38-2.448 2.315-1.273-.061-2.315-1.12-2.299-2.335.016-1.273 1.208-2.4 2.469-2.327 1.301.069 2.306 1.11 2.278 2.347Z"/></g><defs><clipPath id="ja"><path fill="#fff" d="M0 0h110.398v141H0z" transform="translate(22.801 .98)"/></clipPath></defs></symbol></svg>