<svg xmlns="http://www.w3.org/2000/svg" width="87" height="114" fill="none" viewBox="0 0 87 114">
  <path fill="#B7484A" fill-rule="evenodd" d="M31.98 79.65c-1.67 4.5-1.927 20.721 7.32 31.831a13.67 13.67 0 0 0 2.737 2.485c.37.009.743.014 1.116.014 23.833 0 43.154-19.343 43.154-43.203C86.307 42.15 53.414 8.82 45.063.819 43.97-.228 42.303-.28 41.16.712a145.818 145.818 0 0 0-3.982 3.597L31.98 27.574l14.256 13.115 7.32-3.086c1.67-2.186 5.78-6.326 8.862-5.4 3.853 1.157 7.706 5.786 5.395 16.972-1.264 6.117-4.832 13.04-7.743 18.69-2.114 4.103-3.883 7.535-4.171 9.498-.003-.205-.01-.429-.018-.671-.063-1.945-.163-5.052 1.914-8.615 2.697-4.629 9.632-19.802 8.091-27.388-1.541-7.585-5.009-6.172-6.55-5.015-1.233.926-5.137 4.5-6.935 6.172L36.987 56.505 31.98 79.649Z" clip-rule="evenodd"/>
  <path fill="#EA897E" fill-rule="evenodd" d="M42.575 113.977C19.009 113.667 0 94.444 0 70.777c0-30.289 28.87-59.03 39.383-68.491.345 1.845 1.707 5.595 4.926 9.809 5.01 6.558 15.027 19.673 6.165 37.417-4.363 8.737-8.446 14.48-11.973 19.443-3.636 5.115-6.682 9.4-8.833 15.274-4.238 11.573-7.32 12.73-11.174 11.573-3.853-1.158-5.394-9.258-1.156-16.973s8.091-15.044 8.477-20.445c-2.697 5.4-6.936 13.621-9.633 18.383-4.156 7.338-6.168 17.392.77 20.963 4.24 2.182 7.707.124 8.863-1.29l.064.073c1.971 2.237 6.921 7.855 11.495 8.161 5.78.385 8.09 4.629 6.164 8.1-.232.42-.562.821-.963 1.203Z" clip-rule="evenodd"/>
</svg>
