<svg xmlns="http://www.w3.org/2000/svg" width="426" height="472" fill="none" viewBox="0 0 426 472">
  <g clip-path="url(#a)">
    <path fill="#fff" d="M40.43 126.612c.01 0-.012.162-.068.475-.056.313-.156.778-.257 1.393a39.35 39.35 0 0 0-.537 5.409 36.156 36.156 0 0 0 .75 8.55 34.018 34.018 0 0 0 4.165 10.581c2.16 3.67 5.15 7.308 8.24 11.292 3.113 3.962 6.147 8.518 8.274 13.765 2.139 5.226 3.538 11.056 3.807 17.177.257 6.111-.65 12.523-2.978 18.623-2.318 6.111-5.856 11.595-10.133 16.119a47.588 47.588 0 0 1-14.6 10.494c-5.229 2.483-10.435 4.286-15.036 6.51-4.624 2.181-8.554 4.901-11.532 7.989a36.718 36.718 0 0 0-6.662 9.328 35.275 35.275 0 0 0-2.911 8.097c-.303 1.144-.415 2.192-.583 3.088-.09.906-.201 1.673-.235 2.288-.033.605-.056 1.069-.078 1.415-.022.324-.034.486-.045.486-.011 0-.011-.162-.011-.486 0-.346.011-.821.011-1.425.023-.627.112-1.393.18-2.3.145-.896.246-1.954.526-3.109a34.901 34.901 0 0 1 2.843-8.184 36.553 36.553 0 0 1 6.651-9.468c2.99-3.131 6.975-5.927 11.622-8.129 4.624-2.257 9.83-4.081 15.014-6.554 5.206-2.429 10.188-5.905 14.41-10.396 4.232-4.47 7.725-9.9 10.009-15.935 2.295-6.035 3.202-12.362 2.956-18.408-.258-6.056-1.635-11.832-3.74-17.015-2.094-5.203-5.06-9.705-8.162-13.678-3.068-3.995-6.057-7.655-8.218-11.379a34.062 34.062 0 0 1-4.12-10.721 36.07 36.07 0 0 1-.65-8.615c.112-2.375.403-4.2.65-5.42.112-.615.246-1.079.313-1.382.079-.324.123-.475.135-.475Z"/>
    <path fill="#fff" d="M87.51 134.224s-.594 2.612-2.307 7.158c-.862 2.267-2.026 5.009-3.74 8.021-1.712 3.001-3.985 6.327-7.378 9.209-.84.724-1.78 1.382-2.765 2.008a45.024 45.024 0 0 1-3.146 1.684c-2.172 1.08-4.434 2.192-6.763 3.358-4.68 2.3-9.707 4.729-14.857 7.503-5.117 2.786-10.043 6.521-14.23 11.185-4.188 4.653-7.625 10.267-9.618 16.518-1.993 6.251-2.396 12.783-1.389 18.872 1.008 6.089 3.427 11.725 6.909 16.291 3.46 4.599 7.535 8.367 10.793 12.373 1.646 1.986 3.101 4.027 4.243 6.132 1.12 2.105 2.015 4.221 2.642 6.305 1.254 4.167 1.568 8.129 1.422 11.562a32.43 32.43 0 0 1-1.556 8.67 32.015 32.015 0 0 1-2.15 5.16c-.302.54-.548.961-.716 1.263-.168.281-.258.421-.258.421s.068-.161.213-.453c.157-.313.38-.745.672-1.295a34.508 34.508 0 0 0 2.038-5.172 33.445 33.445 0 0 0 1.444-8.615c.112-3.401-.235-7.32-1.5-11.433-.627-2.062-1.523-4.135-2.643-6.208-1.13-2.062-2.575-4.07-4.22-6.046-3.248-3.962-7.334-7.719-10.85-12.361-3.538-4.61-6.012-10.332-7.042-16.508-1.03-6.164-.616-12.782 1.388-19.12 2.015-6.337 5.508-12.016 9.74-16.712 4.244-4.718 9.215-8.486 14.4-11.282 5.172-2.775 10.21-5.182 14.901-7.46 2.34-1.145 4.602-2.257 6.774-3.325a46.084 46.084 0 0 0 3.124-1.652 22.984 22.984 0 0 0 2.72-1.954c3.36-2.807 5.643-6.089 7.367-9.058 1.736-2.98 2.923-5.701 3.807-7.946a89.933 89.933 0 0 0 1.892-5.236c.19-.583.336-1.048.448-1.382.123-.324.19-.475.19-.475Z"/>
    <path fill="#fff" d="M69.797 161.236c-.033.151-5.43-.789-12.07-2.106-6.627-1.317-11.98-2.504-11.946-2.656.034-.151 5.43.789 12.07 2.106 6.628 1.317 11.98 2.504 11.946 2.656Zm8.207-7.46c-.045.151-8.363-2.073-18.586-4.956-10.222-2.893-18.462-5.355-18.417-5.495.044-.151 8.363 2.073 18.585 4.955 10.223 2.883 18.463 5.344 18.418 5.496Zm6.012-9.803c-.044.151-10.02-2.613-22.269-6.165-12.26-3.552-22.146-6.553-22.101-6.704.044-.152 10.02 2.612 22.269 6.164 12.249 3.563 22.146 6.553 22.101 6.705Zm-38.167 90.86c-.056.14-5.408-1.706-11.958-4.124-6.55-2.429-11.8-4.513-11.745-4.653.056-.141 5.408 1.706 11.958 4.135 6.55 2.418 11.812 4.502 11.745 4.642Zm10.513-11.617c-.011.033-.526-.086-1.433-.335-.918-.248-2.228-.626-3.84-1.122-3.236-.983-7.67-2.44-12.518-4.178a272.584 272.584 0 0 1-12.304-4.74 149.848 149.848 0 0 1-3.673-1.576c-.862-.389-1.321-.616-1.31-.659.011-.032.515.13 1.4.454.985.378 2.239.842 3.74 1.403a664.355 664.355 0 0 0 12.349 4.578 711.336 711.336 0 0 0 12.439 4.329l3.784 1.296c.896.323 1.377.507 1.366.55Zm6.035-12.599c-.012.033-.571-.162-1.545-.55a6028.52 6028.52 0 0 0-4.143-1.663 402.033 402.033 0 0 0-13.749-5.236 411.43 411.43 0 0 0-13.962-4.707 714.484 714.484 0 0 0-4.254-1.35c-1.008-.324-1.556-.518-1.545-.561.01-.043.582.086 1.612.345 1.03.259 2.508.659 4.322 1.188a235.906 235.906 0 0 1 14.04 4.567 242.152 242.152 0 0 1 13.715 5.398c1.724.745 3.124 1.371 4.076 1.824.929.443 1.455.713 1.433.745Zm.078-15.708c-.011.032-.448-.087-1.232-.335-.895-.292-1.982-.659-3.269-1.09a515.47 515.47 0 0 0-10.816-3.531c-4.243-1.328-8.106-2.461-10.894-3.282a292.366 292.366 0 0 0-3.314-.972c-.783-.237-1.209-.388-1.198-.421.012-.032.46.044 1.254.216a88.27 88.27 0 0 1 3.36.81c2.832.713 6.717 1.792 10.96 3.131a206.53 206.53 0 0 1 10.771 3.692c1.366.508 2.463.939 3.213 1.263.773.292 1.176.486 1.165.519Zm.157-12.211c-.056.151-4.714-1.252-10.424-3.12-5.71-1.868-10.29-3.509-10.233-3.649.056-.151 4.713 1.252 10.423 3.12 5.7 1.857 10.29 3.498 10.234 3.649Zm-17.41 75.833c-.011.032-.415-.065-1.109-.292-.817-.27-1.802-.594-2.956-.961-2.63-.874-5.99-1.997-9.718-3.239-3.74-1.209-7.11-2.299-9.752-3.163-1.142-.378-2.127-.702-2.944-.971-.695-.238-1.075-.389-1.064-.421.011-.033.414.043 1.13.215.717.173 1.747.454 3.013.799 2.53.713 6 1.76 9.807 3.002 3.807 1.252 7.222 2.461 9.674 3.39a94.85 94.85 0 0 1 2.889 1.133c.671.303 1.04.475 1.03.508Zm1.97 14.25c-.056.151-9.26-2.732-20.556-6.424-11.297-3.703-20.422-6.812-20.366-6.963.056-.152 9.248 2.731 20.556 6.434 11.297 3.692 20.422 6.812 20.366 6.953Zm-.179 10.613c-.045.151-10.323-2.764-22.952-6.499-12.63-3.736-22.83-6.888-22.785-7.039.045-.152 10.323 2.763 22.953 6.499 12.629 3.735 22.829 6.888 22.784 7.039Z"/>
    <path fill="#E0E0E0" d="m312.137 334.469-7.72-6.44c-1.787-1.492-1.957-4.129-.39-5.882l77.896-87.399 14.174 11.84-77.885 87.379c-1.572 1.763-4.283 1.985-6.075.502Z"/>
    <path fill="#F5F5F5" d="m320.363 325.219-7.724-6.442c-1.788-1.493-1.958-4.13-.39-5.885l56.009-62.818 14.182 11.843-56.009 62.819c-1.563 1.745-4.28 1.976-6.068.483Z"/>
    <path fill="#fff" d="m388.198 255.634-9.461-7.873-37.069 41.392 9.46 7.872 37.07-41.391Z"/>
    <path fill="#E0E0E0" d="M312.136 334.472c.029-.071.622.669 2.233.901a4.444 4.444 0 0 0 2.844-.647c.51-.31.929-.768 1.372-1.288.452-.514.93-1.052 1.445-1.632 4.103-4.627 10.02-11.322 17.386-19.635 14.788-16.634 35.35-39.741 58.485-65.763l.022.396c-3.488-2.914-7.189-6.005-10.943-9.137-1.103-.927-2.213-1.846-3.231-2.703l.409-.028c-24.781 27.758-47.096 52.743-63.218 70.797-4.031 4.503-7.685 8.576-10.882 12.149-.802.898-1.577 1.749-2.315 2.582-.367.411-.734.823-1.095 1.225-.351.408-.724.766-.973 1.191a4.068 4.068 0 0 0-.523 2.699c.148.874.58 1.652 1.169 2.204 2.524 2.137 4.475 3.804 5.819 4.948.649.559 1.155.992 1.51 1.294.326.287.486.447.486.447s-.186-.137-.542-.415c-.361-.293-.878-.707-1.547-1.252-1.366-1.13-3.348-2.765-5.898-4.879-.628-.572-1.087-1.39-1.258-2.313a4.254 4.254 0 0 1 .534-2.867c.26-.469.645-.846.991-1.244.361-.402.712-.809 1.084-1.23.739-.833 1.509-1.698 2.302-2.601 3.184-3.593 6.808-7.682 10.825-12.205 16.089-18.084 38.347-43.1 63.081-70.908l.191-.22.223.181c1.019.857 2.128 1.775 3.232 2.703 3.744 3.126 7.455 6.222 10.943 9.137l.213.177-.186.21c-23.192 25.967-43.802 49.048-58.633 65.647a43144.378 43144.378 0 0 0-17.513 19.529c-.51.57-1.004 1.113-1.465 1.622-.447.505-.898.996-1.432 1.305a4.464 4.464 0 0 1-2.942.619 4.236 4.236 0 0 1-1.723-.626c-.34-.22-.48-.37-.48-.37Z"/>
    <path fill="#EBEBEB" d="m394.017 252.467-17.394-14.502 18.535-20.753c.817-.92 2.241-1.03 3.174-.255l14.02 11.685c.933.774 1.018 2.152.2 3.072l-18.535 20.753Z"/>
    <path fill="#E0E0E0" d="M395.947 250.14c-.108.119-4.126-3.068-8.974-7.115-4.858-4.052-8.699-7.433-8.591-7.551.107-.118 4.125 3.069 8.973 7.115 4.848 4.047 8.699 7.433 8.592 7.551Z"/>
    <path fill="#E0E0E0" d="M380.138 236.725c-.118-.101 3.682-4.568 8.494-9.968 4.816-5.409 8.811-9.71 8.929-9.609.118.101-3.683 4.568-8.494 9.967-4.811 5.4-8.811 9.71-8.929 9.61Zm2.362 1.964c-.119-.101 3.682-4.568 8.493-9.967 4.817-5.409 8.812-9.71 8.93-9.61.118.101-3.683 4.568-8.494 9.968-4.802 5.404-8.806 9.7-8.929 9.609Zm2.444 2.022c-.118-.101 3.683-4.568 8.494-9.968 4.816-5.409 8.811-9.71 8.929-9.609.118.1-3.682 4.568-8.494 9.967-4.807 5.414-8.811 9.71-8.929 9.61Zm2.371 1.969c-.118-.1 3.683-4.567 8.494-9.967 4.817-5.409 8.812-9.71 8.93-9.609.118.1-3.683 4.567-8.494 9.967-4.817 5.409-8.811 9.71-8.93 9.609Zm2.44 2.031c-.118-.101 3.683-4.568 8.494-9.968 4.817-5.409 8.811-9.71 8.929-9.609.118.101-3.682 4.568-8.494 9.967-4.816 5.409-8.811 9.71-8.929 9.61Zm2.361 1.965c-.118-.101 3.683-4.568 8.494-9.967 4.817-5.41 8.811-9.711 8.93-9.61.118.101-3.683 4.568-8.494 9.968-4.802 5.404-8.812 9.71-8.93 9.609Zm2.445 2.021c-.119-.101 3.682-4.568 8.493-9.967 4.817-5.41 8.812-9.711 8.93-9.61.118.101-3.683 4.568-8.494 9.967-4.817 5.41-8.811 9.711-8.929 9.61ZM360.315 390.08l-5.694-2.413c-2.16-.912-3.115-3.372-2.126-5.482l38.083-81.829 13.515 5.732-38.083 81.829c-.984 2.101-3.535 3.075-5.695 2.163Z"/>
    <path fill="#F5F5F5" d="m364.39 381.341-5.699-2.414c-2.162-.912-3.117-3.373-2.127-5.485l27.288-58.589 13.525 5.734-27.288 58.589c-.99 2.112-3.543 3.086-5.699 2.165Z"/>
    <path fill="#fff" d="m400.126 314.52-8.988-3.822-18.226 39.299 8.989 3.821 18.225-39.298Z"/>
    <path fill="#E0E0E0" d="M360.313 390.081c.008-.057.625.336 1.908.281a4.397 4.397 0 0 0 2.201-.741 4.139 4.139 0 0 0 1.076-1.022c.322-.422.516-.951.77-1.496 2.025-4.407 4.96-10.769 8.583-18.658 7.334-15.819 17.526-37.781 28.971-62.479l.143.361c-3.06-1.296-6.309-2.681-9.592-4.072-1.337-.569-2.673-1.138-3.913-1.655l.385-.14c-12.124 25.972-23.015 49.306-30.895 66.171-1.973 4.212-3.754 8.006-5.326 11.354-.77 1.67-1.539 3.229-2.162 4.643-.505 1.453-.09 2.953.735 3.88.807.979 2.006 1.263 2.898 1.705.904.399 1.684.731 2.318 1.009.609.278 1.083.483 1.427.63.324.137.473.229.473.229s-.171-.054-.501-.182c-.349-.138-.829-.333-1.445-.577-.639-.269-1.424-.592-2.345-.962-.465-.2-.964-.406-1.492-.628a4.17 4.17 0 0 1-1.5-1.09c-.892-.963-1.346-2.547-.821-4.1.631-1.472 1.368-2.999 2.135-4.683 1.547-3.349 3.304-7.168 5.253-11.38 7.832-16.891 18.669-40.242 30.735-66.245l.124-.256.261.116c1.235.526 2.571 1.095 3.913 1.654 3.283 1.391 6.532 2.776 9.593 4.073l.261.115-.124.256c-11.513 24.663-21.768 46.603-29.14 62.401-3.697 7.863-6.68 14.198-8.748 18.594-.265.541-.479 1.083-.822 1.519a4.332 4.332 0 0 1-1.126 1.044 4.413 4.413 0 0 1-2.289.719 4.456 4.456 0 0 1-1.452-.197c-.326-.113-.47-.191-.47-.191Z"/>
    <path fill="#EBEBEB" d="m403.676 310.766-16.588-7.021 8.969-19.22a2.307 2.307 0 0 1 2.976-1.133l12.502 5.291c1.13.481 1.629 1.758 1.111 2.862l-8.97 19.221Z"/>
    <path fill="#E0E0E0" d="M404.643 308.625c-.068.139-3.878-1.33-8.509-3.303-4.637-1.964-8.343-3.679-8.269-3.828.068-.14 3.878 1.329 8.51 3.303 4.631 1.973 8.337 3.688 8.268 3.828Z"/>
    <path fill="#E0E0E0" d="M389.479 301.997c-.14-.063 1.666-4.255 4.035-9.37 2.379-5.111 4.417-9.203 4.557-9.14.14.063-1.667 4.255-4.036 9.37-2.372 5.101-4.411 9.193-4.556 9.14Zm2.254.955c-.139-.063 1.667-4.255 4.036-9.37 2.379-5.111 4.417-9.203 4.557-9.14.14.063-1.667 4.255-4.036 9.371-2.378 5.11-4.417 9.202-4.557 9.139Zm2.319 1c-.14-.063 1.667-4.255 4.036-9.37 2.378-5.11 4.416-9.202 4.556-9.14.14.063-1.666 4.255-4.035 9.371-2.373 5.101-4.412 9.193-4.557 9.139Zm2.245.95c-.14-.063 1.667-4.255 4.036-9.37 2.378-5.111 4.417-9.203 4.556-9.14.14.063-1.666 4.255-4.035 9.37-2.369 5.116-4.408 9.208-4.557 9.14Zm2.318 1.001c-.14-.063 1.667-4.255 4.036-9.371 2.378-5.11 4.417-9.202 4.557-9.139.14.063-1.667 4.255-4.036 9.37-2.363 5.106-4.411 9.193-4.557 9.14Zm2.25.963c-.14-.062 1.667-4.254 4.035-9.37 2.379-5.11 4.417-9.202 4.557-9.139.14.062-1.666 4.254-4.035 9.37-2.373 5.101-4.412 9.193-4.557 9.139Zm2.324.992c-.14-.063 1.666-4.255 4.035-9.37 2.379-5.11 4.417-9.202 4.557-9.14.14.063-1.667 4.255-4.036 9.371-2.373 5.101-4.411 9.193-4.556 9.139Z"/>
    <path fill="#162A45" d="M214.963 161.832c3.798-5.335 11.241-7.98 17.724-6.273 6.47 1.706 11.511 7.618 11.968 14.084.457 6.454-3.693 12.987-9.858 15.519 5.028 2.475 7.338 9.076 4.911 13.982-2.438 4.917-9.202 7.324-14.371 5.109-1.278 4.341-6.318 6.963-10.984 6.658-4.665-.294-8.873-2.973-12.062-6.274-6.623-6.861-9.6-17-7.115-26.065 2.485-9.065 10.573-16.616 20.162-18.164"/>
    <path fill="#455A64" d="M222.383 154.779c.012-.012.082.101.187.316.106.215.293.531.446.972.351.859.75 2.182.902 3.877a15.129 15.129 0 0 1-.691 6.025c-.692 2.227-2.063 4.589-4.185 6.533l.035-.373a16.302 16.302 0 0 1 3.107 7.212c.621 3.718-.094 7.426-1.7 10.297-1.594 2.893-3.927 4.928-6.084 6.205-2.169 1.289-4.161 1.888-5.556 2.137-.704.113-1.243.192-1.618.203-.375.023-.563.023-.563 0-.011-.056.774-.113 2.134-.429a17.839 17.839 0 0 0 5.369-2.272c2.074-1.289 4.302-3.312 5.814-6.115 1.512-2.781 2.192-6.353 1.594-9.947-.434-2.634-1.524-5.053-2.977-6.963l-.153-.204.188-.169c2.051-1.854 3.399-4.115 4.103-6.262.75-2.159.902-4.194.808-5.855-.199-3.357-1.289-5.154-1.16-5.188Z"/>
    <path fill="#437DAF" d="M269.248 151.625c.023.034-.598.384-1.735.995-1.137.61-2.79 1.446-4.853 2.475-4.114 2.046-9.87 4.747-16.317 7.528-6.459 2.769-12.39 5.098-16.716 6.68-2.168.791-3.927 1.424-5.146 1.831-1.219.407-1.911.622-1.922.577-.012-.034.644-.317 1.84-.791 1.29-.509 3.001-1.187 5.076-2.001a595.444 595.444 0 0 0 16.622-6.839 578.051 578.051 0 0 0 16.376-7.358c2.016-.938 3.68-1.718 4.935-2.306 1.172-.554 1.828-.825 1.84-.791Zm-15.274-14.649c.117.124-6.318 6.047-14.371 13.248-8.054 7.2-14.677 12.942-14.794 12.817-.117-.124 6.318-6.047 14.372-13.247 8.053-7.2 14.676-12.942 14.793-12.818Z"/>
    <path fill="#162A45" d="M183.876 112.493c0-12.162-15.075-12.761-22.694-9.732-4.103-5.414-7.045-8.15-16.47-8.726-6.928-.418-17.489 2.928-22.811 9.653-5.322 6.725-6.377 16.299-2.825 24.042 1.172 2.554 2.848 5.132 2.52 7.923-.481 4.024-4.759 6.387-7.526 9.427-4.642 5.098-4.97 13.372-.738 18.786 2.684 3.437 6.951 5.844 8.37 9.913 1.195 3.414.07 7.144.293 10.738.41 6.601 5.603 12.389 11.991 14.819 6.377 2.43 13.68 1.854 20.127-.407"/>
    <path fill="#EFAD9C" d="m128.747 240.073 23.631-10.207.809-15.248s-17.771-2.532-21.85-24.765c-2.028-11.055-1.782-29.242-1.09-44.117.633-13.383 15.321-27.003 29.165-25.828l44.966 7.449-.012 7.2.41 91.828 23.257 10.919-52.75 60.088-46.536-57.319Z"/>
    <path fill="#162A45" d="M138.64 161.515c-.023 1.515 1.278 2.781 2.907 2.837 1.629.057 2.977-1.119 3.013-2.633.023-1.515-1.278-2.781-2.907-2.838-1.642-.056-2.99 1.131-3.013 2.634Zm-4.126-6.386c.375.362 2.59-1.277 5.779-1.323 3.188-.09 5.556 1.447 5.896 1.074.164-.169-.223-.836-1.254-1.537-1.02-.701-2.743-1.356-4.724-1.322-1.981.045-3.646.779-4.595 1.514-.973.746-1.29 1.424-1.102 1.594Zm33.936 6.431c-.024 1.515 1.277 2.781 2.907 2.837 1.629.057 2.977-1.119 3.012-2.633.024-1.515-1.278-2.781-2.907-2.837-1.641-.057-2.989 1.119-3.012 2.633Zm-2.568-6.397c.375.361 2.591-1.278 5.779-1.323 3.189-.09 5.557 1.447 5.896 1.074.165-.169-.222-.836-1.254-1.537-1.02-.701-2.743-1.357-4.724-1.323-1.993.046-3.645.78-4.595 1.515-.961.746-1.289 1.424-1.102 1.594Zm-11.159 23.013c.011-.169-1.981-.475-5.193-.814-.821-.068-1.594-.214-1.735-.746-.199-.565.117-1.413.504-2.339.727-1.911 1.5-3.923 2.298-6.025 3.188-8.579 5.486-15.621 5.122-15.734-.363-.125-3.235 6.725-6.424 15.304-.762 2.114-1.5 4.126-2.192 6.059-.293.893-.808 1.921-.363 3.086.234.587.832.994 1.36 1.13.527.147.984.147 1.383.158 3.224.113 5.228.091 5.24-.079Z"/>
    <path fill="#AD6253" d="M153.187 214.618s15.567.701 30.818-8.5c0 0-7.936 15.711-31.111 14.027l.293-5.527Zm3.024-29.049c1.126-1.481 3.119-2.317 5.111-2.148 1.384.124 2.802.735 3.658 1.809.855 1.073 1.066 2.611.316 3.662-.844 1.187-2.637 1.481-4.161 1.096-1.536-.395-2.86-1.334-4.126-2.272-.352-.26-.704-.531-.926-.893-.223-.361-.282-.836-.012-1.141"/>
    <path fill="#162A45" d="M164.147 180.143c-.515-.023-.468 3.323-3.387 5.742-2.919 2.43-6.611 2.114-6.635 2.588-.047.215.832.633 2.391.645 1.524.022 3.751-.486 5.545-1.967 1.782-1.481 2.52-3.436 2.614-4.804.117-1.413-.293-2.227-.528-2.204Zm.692-37.018c.328.836 3.505.384 7.256.746 3.763.294 6.799 1.3 7.279.542.211-.361-.328-1.141-1.559-1.933-1.219-.791-3.165-1.526-5.415-1.729-2.251-.203-4.302.181-5.65.735-1.384.565-2.063 1.243-1.911 1.639Zm-29.317 3.074c.574.69 2.755-.079 5.404-.158 2.637-.17 4.888.384 5.392-.35.223-.362-.141-1.052-1.137-1.696-.973-.644-2.602-1.153-4.407-1.074-1.817.091-3.376.746-4.279 1.481-.938.735-1.231 1.458-.973 1.797Zm-11.37-27.579c3.528 7.878 11.593 19.656 20.431 20.684 8.827 1.029 18.099-2.746 23.48-9.585 1.336 6.353 8.651 9.721 15.274 10.772 4.688.746 9.635.792 14.043-.915 4.407-1.707 8.194-5.415 8.897-9.936.715-4.532-5.978-15.655-10.644-16.503"/>
    <path fill="#162A45" d="M184.931 134.41c-1.536 3.289-1.653 7.166-.328 10.546 1.324 3.38 4.067 6.205 7.467 7.709-3.271 3.911-3.845 9.438-2.603 14.31 1.243 4.871 4.091 9.212 7.151 13.27 0 0-7.948 11.088 8.053 19.181 0 0 11.23-3.357 6.213-19.679-.352-1.153-.387-2.486.199-3.549.563-1.017 1.735-1.548 2.778-2.114 4.173-2.238 7.373-6.103 8.71-10.512 1.336-4.419.808-9.336-1.454-13.383-.61-1.085-1.336-2.136-1.559-3.345-.328-1.832-1.77-6.624-1.114-8.365 3.435-9.144-.984-20.504-12.109-26.144-8.92-4.533-20.091-5.279-26.925 1.876"/>
    <path fill="#437DAF" d="m247.035 312.222 15.203-57.465-42.739-22.686-41.262 61.32-37.37-59.636-38.507 16.808c-2.532 1.108-4.572 3.052-5.732 5.494l-34.815 90.832 47.076 14.661 5.392-21.058 6.201 36.362-17.911 95.422 153.712-.542-27.242-97.966 3.786-21.849 14.208-39.697Z"/>
    <path fill="#000" d="M117.986 386.733c10.526 1.718 20.056-7.291 30.735-7.37 9.858-.068 18.04 7.381 27.641 9.54 4.231.95 8.85.916 12.507 3.154 2.814 1.718 4.642 4.532 6.6 7.132 9.249 12.264 23.221 21.126 38.566 24.449 2.356.509 7.596 2.215 9.049.35l-1.559-5.911-1.336-17.758-51.507-36.114-58.787 2.77-11.909 19.758Z" opacity=".3"/>
    <path fill="#162A45" d="M230.893 303.552h-31.802v5.076h31.802v-5.076Z"/>
    <path fill="#437DAF" d="M233.062 365.562c12.835 4.408 26.925 3.741 40.406 1.831 3.2-.452 6.541-1.04 9.073-2.996.844-.655 2.883-2.317 2.848-2.701-.093-1.187-2.321-2.769-3.622-3.753-9.717-7.324-22.835-10.286-34.92-7.878-3.212.644-6.4 1.662-9.132 3.425-2.731 1.763-4.442 2.735-5.38 5.764"/>
    <path fill="#000" d="M233.062 365.562c12.835 4.408 26.925 3.741 40.406 1.831 3.2-.452 6.541-1.04 9.073-2.996.844-.655 2.883-2.317 2.848-2.701-.093-1.187-2.321-2.769-3.622-3.753-9.717-7.324-22.835-10.286-34.92-7.878-3.212.644-6.4 1.662-9.132 3.425-2.731 1.763-4.442 2.735-5.38 5.764" opacity=".3"/>
    <path fill="#437DAF" d="M285.378 361.685s-13.504-77.665-14.336-84.594c-2.087-17.181-8.804-22.674-8.804-22.674l-31.345 92.494 2.169 18.639c0 .012 9.905-14.366 52.316-3.865Z"/>
    <path fill="#162A45" d="M268.099 299.314c.036.011-.175.7-.586 1.921-.41 1.232-1.066 2.984-1.946 5.132-1.758 4.295-4.513 10.105-8.228 16.175-3.716 6.07-7.679 11.201-10.761 14.739-1.536 1.775-2.825 3.165-3.751 4.092-.927.938-1.454 1.436-1.477 1.402-.036-.023.433-.588 1.301-1.56.879-.972 2.11-2.408 3.598-4.205a127.868 127.868 0 0 0 10.562-14.773c3.704-6.036 6.506-11.801 8.358-16.04a163.124 163.124 0 0 0 2.122-5.052c.492-1.176.773-1.843.808-1.831Zm-147.827 75.675c-.012 0-.036-.08-.071-.249a31.712 31.712 0 0 0-.14-.746c-.118-.712-.27-1.673-.469-2.894-.446-2.566-1.079-6.183-1.852-10.625-1.606-8.963-3.916-21.34-6.506-35.006-2.579-13.643-4.912-25.997-6.611-34.995-.809-4.442-1.466-8.059-1.923-10.625-.199-1.221-.352-2.181-.469-2.893-.035-.306-.058-.554-.082-.758-.012-.169-.023-.26-.012-.26.012 0 .036.091.071.26.035.204.094.452.152.746.141.712.34 1.662.586 2.871.516 2.555 1.231 6.161 2.122 10.58 1.77 8.941 4.196 21.295 6.787 34.961 2.591 13.666 4.841 26.054 6.33 35.04.75 4.499 1.301 8.138 1.665 10.659.152 1.221.269 2.193.351 2.916.035.305.059.554.082.758 0 .169 0 .26-.011.26Zm129.084-93.625c.023 0-.036.305-.165.871-.14.621-.339 1.446-.574 2.475-.527 2.204-1.278 5.301-2.192 9.088-1.852 7.675-4.431 18.266-7.174 29.999-2.743 11.732-5.099 22.369-6.682 30.1-.773 3.866-1.406 6.997-1.793 9.167-.199 1.04-.352 1.876-.469 2.498-.117.565-.187.87-.199.87-.024 0 .012-.305.082-.881.094-.633.211-1.47.352-2.521.304-2.181.879-5.324 1.594-9.212 1.465-7.754 3.763-18.413 6.506-30.157a1353.837 1353.837 0 0 1 7.349-29.965c.997-3.775 1.806-6.85 2.38-9.043.281-1.017.516-1.831.68-2.452.187-.543.293-.837.305-.837Zm-118.382-43.62c.012 0 .094.113.258.362.176.271.422.622.727 1.074.644.983 1.559 2.385 2.731 4.171 2.368 3.662 5.755 8.929 9.952 15.429l32.81 51.283-.504-.012c.492-.667 1.02-1.39 1.559-2.113 1.665-2.261 3.317-4.499 4.865-6.59l-.012.316c-11.957-19.125-22.612-36.148-30.29-48.434-3.798-6.115-6.857-11.055-8.991-14.491-1.031-1.684-1.84-3.007-2.403-3.933-.258-.43-.457-.769-.609-1.029-.129-.237-.2-.35-.188-.362.012 0 .094.102.246.328.164.249.387.577.657.995.586.915 1.43 2.215 2.496 3.877 2.169 3.413 5.287 8.308 9.144 14.389 7.725 12.252 18.427 29.241 30.454 48.332l.105.17-.117.158c-1.547 2.103-3.2 4.341-4.865 6.601-.539.724-1.066 1.447-1.559 2.114l-.269.362-.246-.385c-12.789-20.131-24.312-38.25-32.647-51.373-4.126-6.544-7.467-11.834-9.787-15.53-1.126-1.82-2.017-3.233-2.626-4.228-.282-.463-.504-.836-.668-1.108-.153-.237-.223-.373-.223-.373Z"/>
    <path fill="#162A45" d="M219.499 231.731c.012 0-.058.113-.187.328-.153.238-.34.543-.586.927-.551.837-1.325 2.023-2.321 3.549-2.063 3.097-5.017 7.551-8.675 13.056-7.42 11.065-17.688 26.404-29.235 43.63v-.316c1.29 2.034 2.661 4.193 4.056 6.375.446.712.903 1.413 1.313 2.068l-.516-.011c6.26-9.02 12.039-17.701 17.314-25.557 5.275-7.867 10.104-14.875 14.301-20.662a437.448 437.448 0 0 1 10.175-13.519c1.23-1.537 2.192-2.735 2.872-3.583.316-.384.574-.689.761-.927.176-.203.27-.305.27-.305.012.011-.07.124-.223.339-.175.237-.41.554-.715.961-.656.859-1.582 2.091-2.778 3.651a571.573 571.573 0 0 0-10.011 13.609c-4.149 5.81-8.932 12.84-14.183 20.719-5.252 7.878-11.019 16.57-17.279 25.59l-.269.385-.246-.396c-.411-.656-.868-1.356-1.313-2.068-1.384-2.182-2.755-4.352-4.056-6.387l-.106-.158.106-.158c11.605-17.181 21.944-32.486 29.399-43.529 3.728-5.471 6.728-9.879 8.827-12.965 1.031-1.492 1.84-2.667 2.414-3.493.27-.373.481-.667.633-.893.165-.158.247-.26.258-.26Z"/>
    <path fill="#EBEBEB" d="M135.545 340.457c-5.603-2.328-11.077.69-12.988 4.25-1.91 3.561-1.371 8.466 1.407 11.315 2.778 2.848 9.507 4.792 12.636 1.356l-1.055-16.921Z"/>
    <path fill="#162A45" d="M135.545 340.457c.024-.023.082.395.153 1.198.07.882.176 2.035.293 3.447.223 3.086.527 7.302.891 12.253l.011.113-.082.079c-1.289 1.413-3.411 2.091-5.462 1.922-2.063-.113-4.162-.791-5.99-1.967-1.782-1.096-3.036-2.837-3.646-4.646-.633-1.819-.703-3.707-.387-5.425.329-1.718 1.079-3.301 2.169-4.454 1.055-1.186 2.321-2.012 3.564-2.554a10.455 10.455 0 0 1 6.294-.723c1.466.316 2.239.768 2.192.757-.058.045-.773-.283-2.239-.543a10.468 10.468 0 0 0-6.06.871c-2.356 1.051-4.829 3.379-5.369 6.725-.281 1.639-.199 3.436.399 5.143.586 1.718 1.735 3.312 3.411 4.34 1.735 1.108 3.739 1.764 5.685 1.888 1.946.158 3.845-.452 5.017-1.695l-.07.192c-.258-4.906-.469-9.088-.633-12.14-.059-1.435-.105-2.611-.141-3.504-.023-.814-.023-1.266 0-1.277Z"/>
    <path fill="#162A45" d="M127.176 340.457s3.341-66.395 5.064-75.912c1.723-9.518 6.154-24.913 13.129-34.215 6.669-8.896 7.326-9.518 7.326-9.518l-.446 8.286s-9.623 15.338-13.386 34.441c-3.704 18.808-6.26 76.918-6.26 76.918h-5.427Z"/>
    <path fill="#E0E0E0" d="M225.02 352.314c-1.84 0-3.762-.373-5.685-1.13l.879-2.091c1.852.723 4.666 1.413 7.585.588 2.52-.713 4.642-2.578 5.556-4.861.961-2.43.598-5.188.117-7.076-.434-1.707-1.078-3.334-1.758-5.052-.293-.735-.586-1.47-.856-2.216-4.923-13.349-4.079-28.292-3.329-41.483l2.344.125c-.738 12.976-1.57 27.67 3.201 40.601.269.723.55 1.447.832 2.17.68 1.707 1.371 3.47 1.84 5.324.797 3.154.727 6.07-.199 8.421-1.172 2.973-3.821 5.301-7.08 6.228a12.99 12.99 0 0 1-3.447.452Z"/>
    <path fill="#EBEBEB" d="M224.809 353.32c-3.915 0-7.338-1.775-10.327-5.324-3.868-4.589-4.478-15.983-5.029-26.031-.199-3.595-.375-6.986-.703-9.45-1.149-8.692-6.318-20.334-6.365-20.447l2.157-.893c.223.486 5.345 12.049 6.541 21.058.34 2.543.527 5.979.715 9.607.504 9.224 1.125 20.697 4.501 24.721 5.111 6.069 11.312 6.002 20.104-.193l1.383 1.832c-4.83 3.413-9.143 5.12-12.977 5.12Z"/>
    <path fill="#162A45" d="M233.062 348.335c.492-1.152 1.02-2.294 1.793-3.255.774-.961 1.841-1.707 3.025-1.842 1.184-.136 2.485.463 3 1.593.493 1.086.2 2.442-.539 3.357-.738.916-1.852 1.413-2.977 1.606-1.126.192-2.274.113-3.411.033m-24.289-100.011c2.673 3.188 14.395 18.244 15.825 39.426h4.877s-.012-23.613-19.025-44.49c1.219-3.933 2.25-7.946 2.684-11.495 1.078-8.839-8.979-14.186-8.979-14.186l.035 6.692s4.314 2.181 4.091 6.94c-.211 4.759-3.927 14.875-7.549 23.601-1.747 4.205-4.372 11.292-3.986 22.618.34 9.89 4.349 14.378 4.349 14.378l4.842-1.978s-2.896-3.493-4.15-13.056c-.961-7.29 1.289-13.01 3.224-18.288.973-2.589 2.379-6.194 3.762-10.162Z"/>
    <path fill="#EFAD9C" d="m69.573 349.07-5.884 21.555c-1.9 6.963-.13 14.536 5.122 19.656.317.305.645.599.973.893 6.248 5.381 15.11 6.907 22.893 3.922l60.733-23.25-8.968-26.393L98.48 358.09l-28.907-9.02Z"/>
    <path fill="#162A45" d="m119.404 313.148 11.007 56.483c.481 2.464 2.755 4.216 5.357 4.125l84.095-3.097c2.895-.102 5.146-2.441 5.052-5.233l-1.922-53.397c-.094-2.724-2.415-4.883-5.252-4.883h-93.179c-3.282 0-5.767 2.883-5.158 6.002Z"/>
    <path fill="#EFAD9C" d="M211.282 336.15c-3.223 0-6.13 1.898-7.291 4.803-1.219 3.052-3.001 6.624-4.97 7.664-3.646 1.922-9.941 3.448-13.258 1.888-3.317-1.56-16.575-13.067-18.896-11.79-2.321 1.278-4.314 4.16-1.993 6.715 2.321 2.554 14.583 10.229 12.262 12.783-2.321 2.555-28.18-8.703-32.154-7.708-3.974.994-6.295 3.345-3.974 4.894 2.321 1.537 19.892 7.935 20.889 10.173 0 0-26.516-6.714-27.512-5.109-.996 1.594-2.649 4.159 0 5.109 2.649.961 25.531 6.714 27.512 7.675 1.993.961 8.838 2.871 10.222 2.871.726 0 5.919 1.673 10.678 3.266a24.186 24.186 0 0 0 16.493-.429l2.685-1.051c4.173-1.639 6.81-5.663 6.541-10.015l-.539-8.715 2.895-7.189.41-15.835Z"/>
    <path fill="#EFAD9C" d="M190.042 380.617s48.4 42.24 64.694 42.353c17.173.124 26.832-17.057 25.003-27.727-.972-5.697-3.528-35.481-3.528-35.481-11.499-3.029-28.684-4.385-40.934 3.47l4.455 17.385-32.295-15.056-17.395 15.056Z"/>
    <path fill="#162A45" d="M285.378 361.684c0 .022-.199-.012-.551-.091-.422-.102-.938-.215-1.559-.362-1.348-.316-3.306-.791-5.744-1.311-4.853-1.017-11.64-2.339-19.224-2.147-3.787.101-7.373.554-10.597 1.153-3.224.576-6.06 1.39-8.323 2.362-2.262.961-3.915 2.091-4.97 2.95-1.055.87-1.547 1.436-1.594 1.402-.012-.012.094-.158.328-.441.223-.283.598-.667 1.102-1.13 1.02-.927 2.673-2.125 4.947-3.154s5.146-1.899 8.393-2.521c3.235-.633 6.857-1.107 10.69-1.209 7.667-.192 14.501 1.198 19.342 2.328 2.426.577 4.36 1.108 5.697 1.504.609.181 1.113.339 1.535.463.364.124.54.192.528.204Z"/>
    <path fill="#E0E0E0" d="M309.743 187.258h-.28c-2.542 0-4.602-1.987-4.602-4.438v-43.432c0-2.451 2.06-4.438 4.602-4.438h.28c2.541 0 4.601 1.987 4.601 4.438v43.432c0 2.451-2.06 4.438-4.601 4.438Z"/>
    <path fill="#E2817F" d="M309.743 187.258h-.28c-2.542 0-4.602-1.987-4.602-4.438v-27.8c0-2.45 2.06-4.437 4.602-4.437h.28c2.541 0 4.601 1.987 4.601 4.437v27.8c0 2.451-2.06 4.438-4.601 4.438Z"/>
    <path fill="#E0E0E0" d="M325.272 187.258h-.28c-2.542 0-4.602-1.987-4.602-4.438v-43.432c0-2.451 2.06-4.438 4.602-4.438h.28c2.541 0 4.601 1.987 4.601 4.438v43.432c0 2.451-2.06 4.438-4.601 4.438Z"/>
    <path fill="#E2817F" d="M325.272 187.258h-.28c-2.542 0-4.602-1.987-4.602-4.437v-19.693c0-2.45 2.06-4.437 4.602-4.437h.28c2.541 0 4.601 1.987 4.601 4.437v19.693c0 2.45-2.06 4.437-4.601 4.437Z"/>
    <path fill="#E0E0E0" d="M342.839 187.258h-.28c-2.542 0-4.602-1.987-4.602-4.438v-43.432c0-2.451 2.06-4.438 4.602-4.438h.28c2.541 0 4.601 1.987 4.601 4.438v43.432c0 2.451-2.06 4.438-4.601 4.438Z"/>
    <path fill="#E2817F" d="M342.839 187.257h-.28c-2.542 0-4.602-1.986-4.602-4.437v-33.986c0-2.451 2.06-4.437 4.602-4.437h.28c2.541 0 4.601 1.986 4.601 4.437v33.986c0 2.451-2.06 4.437-4.601 4.437Z"/>
    <path fill="#162A45" d="M309.743 187.258c0-.033.425-.011 1.186-.216a4.52 4.52 0 0 0 2.643-1.965c.38-.605.638-1.382.638-2.246-.011-.885-.011-1.857-.023-2.882-.011-2.084-.022-4.438-.044-7.039-.023-5.226-.034-11.433-.067-18.321 0-3.444-.012-7.072-.023-10.818v-2.84c-.022-.96.09-1.932-.19-2.785-.549-1.76-2.396-3.044-4.389-2.915-1.959-.021-3.762 1.371-4.188 3.153-.223.863-.1 1.857-.134 2.807v2.839c-.011 3.746-.011 7.374-.022 10.818-.023 6.888-.045 13.095-.067 18.321-.012 2.602-.034 4.955-.045 7.039 0 1.036-.034 2.008-.011 2.882.044.864.358 1.62.772 2.203.851 1.187 2.015 1.641 2.754 1.814.784.161 1.21.118 1.21.151 0 0-.426.086-1.221-.033a4.7 4.7 0 0 1-2.922-1.803 4.366 4.366 0 0 1-.862-2.321c-.034-.907-.023-1.857-.034-2.893-.011-2.084-.022-4.437-.045-7.039-.022-5.226-.033-11.433-.067-18.321 0-3.455-.011-7.072-.022-10.818v-4.275c-.011-.465.011-1.015.145-1.501.471-2.03 2.531-3.617 4.748-3.584 1.063-.054 2.194.248 3.067.853a4.784 4.784 0 0 1 1.87 2.461c.157.486.213 1.015.224 1.512v4.275c-.011 3.746-.011 7.374-.022 10.818-.023 6.888-.045 13.095-.067 18.321-.012 2.601-.034 4.955-.045 7.039-.011 1.036-.023 1.997-.023 2.882-.022.918-.302 1.738-.727 2.365a4.575 4.575 0 0 1-2.799 1.965c-.773.172-1.198.097-1.198.097Zm15.529 0c0-.033.425-.011 1.187-.216a4.514 4.514 0 0 0 2.642-1.965 4.23 4.23 0 0 0 .638-2.246c-.011-.885-.011-1.857-.022-2.882-.011-2.084-.023-4.437-.045-7.039-.022-5.226-.034-11.433-.067-18.321 0-3.444-.011-7.072-.023-10.818v-2.839c-.022-.961.09-1.933-.19-2.786-.549-1.76-2.396-3.044-4.389-2.915-1.959-.021-3.762 1.371-4.187 3.153-.224.863-.101 1.857-.135 2.807v2.839c-.011 3.746-.011 7.374-.022 10.818-.022 6.888-.045 13.096-.067 18.321-.011 2.602-.034 4.955-.045 7.039 0 1.036-.034 2.008-.011 2.882.045.864.358 1.62.772 2.203.851 1.187 2.016 1.641 2.755 1.814.783.162 1.209.118 1.209.151 0 0-.426.086-1.221-.033a4.703 4.703 0 0 1-2.922-1.803 4.366 4.366 0 0 1-.862-2.321c-.033-.907-.022-1.857-.033-2.893-.012-2.084-.023-4.437-.045-7.039-.023-5.225-.034-11.433-.067-18.321 0-3.455-.012-7.072-.023-10.818v-4.275c-.011-.464.011-1.015.146-1.501.47-2.03 2.53-3.617 4.747-3.584 1.064-.054 2.194.248 3.068.853a4.79 4.79 0 0 1 1.869 2.461c.157.486.213 1.015.224 1.512v4.275c-.011 3.746-.011 7.374-.022 10.818-.022 6.888-.045 13.095-.067 18.321-.011 2.602-.034 4.955-.045 7.039-.011 1.036-.022 1.997-.022 2.882-.023.918-.303 1.739-.728 2.365a4.575 4.575 0 0 1-2.799 1.965c-.773.172-1.198.097-1.198.097Zm17.566 0c0-.033.426-.011 1.187-.216a4.515 4.515 0 0 0 2.643-1.965c.38-.605.638-1.382.638-2.246-.011-.885-.011-1.857-.023-2.882-.011-2.084-.022-4.437-.044-7.039-.023-5.226-.034-11.433-.068-18.321 0-3.444-.011-7.072-.022-10.818v-2.839c-.022-.961.09-1.933-.19-2.786-.549-1.76-2.396-3.044-4.389-2.915-1.96-.021-3.762 1.371-4.188 3.153-.224.863-.1 1.857-.134 2.807v2.839c-.011 3.746-.011 7.374-.022 10.818-.023 6.888-.045 13.096-.068 18.321-.011 2.602-.033 4.955-.044 7.039 0 1.036-.034 2.008-.012 2.882.045.864.359 1.62.773 2.203.851 1.187 2.015 1.641 2.754 1.814.784.162 1.209.118 1.209.151 0 0-.425.086-1.22-.033a4.7 4.7 0 0 1-2.922-1.803 4.366 4.366 0 0 1-.862-2.321c-.034-.907-.023-1.857-.034-2.893-.011-2.084-.022-4.437-.045-7.039-.022-5.225-.033-11.433-.067-18.321 0-3.455-.011-7.072-.022-10.818v-4.275c-.011-.464.011-1.015.145-1.501.471-2.03 2.531-3.617 4.748-3.584 1.063-.054 2.194.248 3.067.853a4.792 4.792 0 0 1 1.87 2.461c.157.486.213 1.015.224 1.512v4.275c-.011 3.746-.011 7.374-.022 10.818-.023 6.888-.045 13.095-.068 18.321-.011 2.602-.033 4.955-.044 7.039a256.106 256.106 0 0 0-.023 2.882c-.022.918-.302 1.739-.727 2.365a4.574 4.574 0 0 1-2.8 1.965c-.772.172-1.198.097-1.198.097Z"/>
    <path fill="#162A45" d="M326.156 101.115c0-.021.347-.032 1.03-.021.739.021 1.747.043 3.012.086.661.032 1.411.032 2.217.097.817.108 1.702.227 2.653.357.963.129 1.993.28 3.102.431 1.086.259 2.239.54 3.459.832 4.871 1.209 10.771 3.271 16.795 7.06 6.023 3.725 12.282 9.058 17.365 16.313 4.982 7.255 8.834 16.389 9.853 26.645.101 2.57.425 5.171.168 7.827-.101 1.328-.067 2.667-.269 4.006-.213 1.338-.414 2.677-.627 4.037-1.131 5.355-2.788 10.829-5.643 15.936a61.42 61.42 0 0 1-10.793 14.326 62.54 62.54 0 0 1-15.552 10.775c-5.81 2.861-12.248 4.836-18.955 5.614-1.657.313-3.359.313-5.061.41-1.701.108-3.403.162-5.105.086a63.126 63.126 0 0 1-10.233-1.241c-7.367-1.512-14.298-4.405-20.377-8.27l.615.065c-7.065 2.731-13.995 5.419-20.757 8.032l-1.232.475.347-1.231 6.102-21.398.101.529c-5.822-7.46-9.539-15.989-11.073-24.453-.773-4.232-1.098-8.453-.806-12.524.089-2.04.19-4.059.593-6.013l.47-2.926c.191-.961.493-1.9.728-2.839 4.008-15.093 13.626-26.213 23.154-32.583 4.769-3.239 9.472-5.56 13.782-7.007 1.075-.367 2.105-.723 3.102-1.068 1.018-.249 2.004-.486 2.944-.724.941-.226 1.836-.442 2.699-.647.862-.162 1.701-.249 2.485-.368 1.568-.194 2.945-.453 4.154-.507 1.187-.043 2.206-.076 3.045-.097.773-.022 1.389-.032 1.859-.043.436 0 .649 0 .649.021 0 .022-.213.043-.627.087-.47.032-1.086.086-1.858.14l-3.035.194c-1.198.087-2.563.378-4.12.605-6.113 1.08-15.271 3.433-24.62 10.03-9.349 6.369-18.72 17.392-22.583 32.194-.224.917-.526 1.835-.694 2.785-.146.95-.302 1.911-.448 2.872-.381 1.921-.47 3.897-.549 5.905-.268 4.006.068 8.141.84 12.286 1.534 8.292 5.206 16.626 10.928 23.924l.19.238-.078.291c-1.96 6.91-3.975 14.068-6.058 21.409l-.873-.756a29280.46 29280.46 0 0 0 20.747-8.053l.324-.13.291.184c5.957 3.778 12.731 6.596 19.93 8.075 3.314.68 6.662 1.09 10.009 1.22 1.668.076 3.337.022 4.994-.086 1.657-.098 3.325-.087 4.948-.4 6.55-.745 12.854-2.677 18.541-5.463a61.538 61.538 0 0 0 15.238-10.515 60.59 60.59 0 0 0 10.603-13.992c2.822-4.988 4.445-10.353 5.576-15.589.213-1.328.425-2.646.638-3.952.202-1.306.179-2.634.28-3.93.269-2.602-.045-5.16-.123-7.686-.952-10.073-4.68-19.056-9.528-26.235-4.949-7.169-11.073-12.47-16.985-16.216-5.911-3.8-11.722-5.916-16.525-7.179-1.21-.313-2.352-.605-3.426-.875-1.086-.173-2.116-.334-3.068-.486-.952-.151-1.825-.291-2.631-.421-.806-.086-1.545-.108-2.206-.162-1.265-.086-2.262-.162-3.001-.205-.694-.043-1.041-.086-1.041-.108Z"/>
  </g>
  <defs>
    <clipPath id="a">
      <path fill="#fff" d="M0 0h426v471H0z" transform="translate(0 .5)"/>
    </clipPath>
  </defs>
</svg>
